<svg xmlns="http://www.w3.org/2000/svg" xmlns:xlink="http://www.w3.org/1999/xlink" width="1150.72" height="826" viewBox="-25 -186 1150.72 826" role="img" aria-labelledby="title description">
<title id="title">OTLP forwarder over CloudWatch Logs</title>
<desc id="description">The Lambda functions send spans over CloudWatch Logs to the OTLP forwarder, which exports them to an OTLP endpoint, through the ROTel extension to ClickHouse, or with SigV4 to the account&#x27;s Transaction Search. At cold start, the forwarder reads its OTLP headers from Secrets Manager for the OTLP exporter, and the ROTel extension reads the ClickHouse credentials for the ClickHouse exporter.</desc>
<metadata>{&quot;generator&quot;: &quot;aws-diagrams&quot;, &quot;icon_source&quot;: &quot;https://d1.awsstatic.com/onedam/marketing-channels/website/public/shared/architecture-icon-release/Icon-package_07312026.5846e92413caa21490223536cc97f1269e44fa92.zip&quot;, &quot;icons&quot;: {&quot;Architecture-Group-Icons_07312026/AWS-Cloud-logo_32.svg&quot;: &quot;63d73df1aac59dab323df732f82e196e359fb7b6370c0ca8e51e7b897cd350be&quot;, &quot;Architecture-Service-Icons_07312026/Arch_Compute/64/Arch_AWS-Lambda_64.svg&quot;: &quot;5818c80cd8e7d08891a2492c7694f472ca914fb3a99d9ef8e597db0b37ad7f13&quot;, &quot;Architecture-Service-Icons_07312026/Arch_Management-Tools/48/Arch_Amazon-CloudWatch_48.svg&quot;: &quot;9920f2db47fed7e2437c329e8b231edcb0f55db82f02413afa3f2d546c30d552&quot;, &quot;Architecture-Service-Icons_07312026/Arch_Security-Identity/48/Arch_AWS-Secrets-Manager_48.svg&quot;: &quot;0258cbde7033b45683db4e814980f5871d3e88fd8490ad9e9f3f531049fffe40&quot;, &quot;Resource-Icons_07312026/Res_General-Icons/Res_48_Light/Res_Source-Code_48_Light.svg&quot;: &quot;d1d1ca285fc6f89677e8504c6cfe2c0436d56b16d5e79250d2feaca2e5359333&quot;, &quot;Resource-Icons_07312026/Res_Management-Governance/Res_Amazon-CloudWatch_Logs_48.svg&quot;: &quot;d395fbcdfe2a524b8cb8ea1f157be8f8cb02e29e635607acbfa9644a31ff4e12&quot;}, &quot;third_party_icons&quot;: {&quot;clickhouse/clickhouse.svg&quot;: {&quot;sha256&quot;: &quot;3522815f1e5beacc521332c0e785c92648f66b51c799a76071d14d8ae546bd4e&quot;, &quot;source&quot;: &quot;manual&quot;}, &quot;generic/layers.svg&quot;: {&quot;sha256&quot;: &quot;864100a52677b71092d3e61f5fa2be4ec07c12589851286f75ea518abb8c74e4&quot;, &quot;source&quot;: &quot;manual&quot;}, &quot;nodejs/nodejs.svg&quot;: {&quot;sha256&quot;: &quot;3c88b1a2261132b11d242fe8831525be051450e1149c965d5a5f1ded63e9b50d&quot;, &quot;source&quot;: &quot;https://raw.githubusercontent.com/nodejs/nodejs.org/9a6ba5224552a325ca0680f6e3f0359e0213ca3a/apps/site/public/static/logos/jsIconGreen.svg&quot;}, &quot;opentelemetry/opentelemetry-otlp.svg&quot;: {&quot;sha256&quot;: &quot;16298e1a4fee49c64187d1b4aebd2c47787c1f40284b569815a16dd33fe13a7a&quot;, &quot;source&quot;: &quot;manual&quot;}, &quot;opentelemetry/opentelemetry.svg&quot;: {&quot;sha256&quot;: &quot;f19d3aa81895ba0d2102df6bbd76371e55664f8f6714c6ed355f971b7b013906&quot;, &quot;source&quot;: &quot;https://raw.githubusercontent.com/cncf/artwork/831f27a0cf4227b1b76a28ff51a9f4127a2195ec/projects/opentelemetry/icon/color/opentelemetry-icon-color.svg&quot;}, &quot;python/python.svg&quot;: {&quot;sha256&quot;: &quot;29517011c8b56c98377379b5f06bcd4a0ebdba9b0c928d65f87b77b177a69b03&quot;, &quot;source&quot;: &quot;https://raw.githubusercontent.com/python/cpython/109a192eb5c4b3ac3ed4c029b9032215bd079c6e/PC/icons/logo.svg&quot;}, &quot;rust/rust-filled.svg&quot;: {&quot;sha256&quot;: &quot;6641bb8d5de64baff5958b9eac53abce6a44a0aabed2919750f37b94e3e68310&quot;, &quot;source&quot;: &quot;manual&quot;}, &quot;rust/rust.svg&quot;: {&quot;sha256&quot;: &quot;9a9549ea02d34dec3a610b8299f1b8121c7b10b14a44d3baec46ba15e9a06ca2&quot;, &quot;source&quot;: &quot;https://raw.githubusercontent.com/rust-lang/rust-artwork/7b54b6689dc310db2f301d7bcda847f016bd447c/logo/rust-logo.svg&quot;}, &quot;sql/sql.svg&quot;: {&quot;sha256&quot;: &quot;278fdee949dfd52f7757a577f9a5a70d174d7241edc2fd01d1967ea69771ccb5&quot;, &quot;source&quot;: &quot;manual&quot;}}}</metadata>
<rect x="-25" y="-186" width="1150.72" height="826" fill="#FFFFFF"/>
<g data-group-id="aws">
<rect x="0" y="-161" width="948" height="776" fill="none" stroke="#232F3E" stroke-width="1.2"/>
<svg xmlns="http://www.w3.org/2000/svg" width="28" height="28" viewBox="0 0 40 40" version="1.1" id="icon-6e8dc616509f-1" x="0" y="-161" preserveAspectRatio="xMidYMid meet" data-icon="" aria-hidden="true">
    <title>Icon-Architecture-Group/32/AWS-Cloud-logo_32</title>
    <g id="icon-6e8dc616509f-1-Icon-Architecture-Group/32/AWS-Cloud-logo_32" stroke="none" stroke-width="1" fill="none" fill-rule="evenodd">
        <rect id="icon-6e8dc616509f-1-Rectangle" fill="#242F3E" x="0" y="0" width="40" height="40" />
        <path d="M32.6982,23.9008 C33.0592,24.3698 32.2982,26.2998 31.9572,27.1638 C31.8532,27.4258 32.0752,27.5288 32.3072,27.3318 C33.8202,26.0478 34.2122,23.3568 33.9012,22.9688 C33.5942,22.5828 30.9502,22.2518 29.3382,23.4008 C29.0892,23.5778 29.1322,23.8218 29.4072,23.7898 C30.3152,23.6778 32.3382,23.4328 32.6982,23.9008 L32.6982,23.9008 Z M31.8562,25.9098 C32.3742,25.5318 31.9302,24.9688 31.4022,25.1898 C27.8892,26.6538 24.0752,27.3628 20.6022,27.3628 C15.4592,27.3628 10.4752,25.9738 6.4462,23.6678 C6.0942,23.4658 5.8332,23.8228 6.1272,24.0818 C9.8602,27.3978 14.7962,29.3908 20.2742,29.3908 C24.1842,29.3908 28.7252,28.1828 31.8562,25.9098 L31.8562,25.9098 Z M29.7122,20.6948 C29.2142,20.6948 28.7272,20.6418 28.2532,20.5338 C27.7772,20.4248 27.4132,20.3018 27.1602,20.1608 C27.0052,20.0768 26.9082,19.9888 26.8692,19.9028 C26.8312,19.8148 26.8112,19.7288 26.8112,19.6428 L26.8112,19.1738 C26.8112,18.9798 26.8842,18.8808 27.0272,18.8808 C27.0822,18.8808 27.1402,18.8938 27.2002,18.9138 C27.2612,18.9368 27.3412,18.9688 27.4412,19.0118 C27.7612,19.1528 28.1082,19.2598 28.4852,19.3358 C28.8612,19.4108 29.2362,19.4488 29.6112,19.4488 C30.2082,19.4488 30.6692,19.3468 30.9952,19.1408 C31.3222,18.9368 31.4842,18.6458 31.4842,18.2678 C31.4842,18.0078 31.3992,17.7928 31.2272,17.6188 C31.0562,17.4448 30.7382,17.2858 30.2752,17.1338 L28.9002,16.7128 C28.2032,16.4968 27.6982,16.1838 27.3832,15.7748 C27.0682,15.3628 26.9112,14.9158 26.9112,14.4278 C26.9112,14.0408 26.9962,13.6988 27.1692,13.4008 C27.3392,13.1038 27.5642,12.8508 27.8452,12.6398 C28.1302,12.4298 28.4592,12.2718 28.8342,12.1618 C29.2082,12.0548 29.6062,11.9998 30.0262,11.9998 C30.2362,11.9998 30.4492,12.0138 30.6662,12.0408 C30.8812,12.0668 31.0852,12.1028 31.2782,12.1458 C31.4712,12.1908 31.6512,12.2388 31.8162,12.2918 C31.9822,12.3468 32.1142,12.4008 32.2152,12.4538 C32.3462,12.5288 32.4392,12.6048 32.4962,12.6808 C32.5512,12.7558 32.5792,12.8578 32.5792,12.9888 L32.5792,13.4248 C32.5792,13.6198 32.5072,13.7158 32.3622,13.7158 C32.2852,13.7158 32.1652,13.6798 31.9982,13.6038 C31.4582,13.3648 30.8482,13.2478 30.1772,13.2478 C29.6352,13.2478 29.2142,13.3338 28.9162,13.5058 C28.6172,13.6798 28.4682,13.9548 28.4682,14.3328 C28.4682,14.5908 28.5622,14.8098 28.7512,14.9878 C28.9392,15.1658 29.2862,15.3358 29.7952,15.4988 L31.1372,15.9208 C31.8222,16.1348 32.3112,16.4328 32.6032,16.8088 C32.8972,17.1878 33.0442,17.6188 33.0442,18.1038 C33.0442,18.5048 32.9612,18.8638 32.7942,19.1818 C32.6282,19.5008 32.3992,19.7718 32.1052,19.9988 C31.8132,20.2258 31.4632,20.3978 31.0542,20.5168 C30.6442,20.6368 30.1972,20.6948 29.7122,20.6948 L29.7122,20.6948 Z M17.5472,20.4508 C17.3812,20.4508 17.2602,20.4238 17.1822,20.3638 C17.1042,20.3028 17.0382,20.1828 16.9832,19.9988 L14.7612,12.8418 C14.7082,12.6578 14.6792,12.5348 14.6792,12.4708 C14.6792,12.3198 14.7572,12.2438 14.9122,12.2438 L15.8392,12.2438 C16.0162,12.2438 16.1402,12.2738 16.2132,12.3338 C16.2842,12.3918 16.3472,12.5118 16.4022,12.6978 L17.9932,18.8178 L19.4702,12.6978 C19.5142,12.5118 19.5742,12.3918 19.6512,12.3338 C19.7282,12.2738 19.8552,12.2438 20.0312,12.2438 L20.7962,12.2438 C20.9712,12.2438 21.0982,12.2738 21.1762,12.3338 C21.2532,12.3918 21.3142,12.5118 21.3582,12.6978 L22.8512,18.8988 L24.4912,12.6978 C24.5462,12.5118 24.6092,12.3918 24.6812,12.3338 C24.7542,12.2738 24.8772,12.2438 25.0542,12.2438 L25.9322,12.2438 C26.0882,12.2438 26.1652,12.3198 26.1652,12.4708 C26.1652,12.5118 26.1582,12.5618 26.1492,12.6148 C26.1362,12.6708 26.1162,12.7458 26.0812,12.8418 L23.7952,19.9988 C23.7402,20.1828 23.6732,20.3028 23.5952,20.3638 C23.5182,20.4238 23.3962,20.4508 23.2312,20.4508 L22.4182,20.4508 C22.2422,20.4508 22.1152,20.4208 22.0382,20.3568 C21.9612,20.2918 21.9002,20.1658 21.8562,19.9838 L20.3802,14.0238 L18.9232,19.9838 C18.8792,20.1658 18.8172,20.2918 18.7402,20.3568 C18.6622,20.4208 18.5362,20.4508 18.3592,20.4508 L17.5472,20.4508 Z M9.9392,19.4488 C10.2502,19.4488 10.5752,19.3918 10.9182,19.2788 C11.2602,19.1648 11.5582,18.9688 11.8122,18.6868 C11.9682,18.5148 12.0742,18.3178 12.1362,18.0958 C12.1962,17.8758 12.2252,17.6088 12.2252,17.2948 L12.2252,16.9068 C11.9512,16.8418 11.6612,16.7908 11.3562,16.7528 C11.0522,16.7158 10.7572,16.6958 10.4692,16.6958 C9.8402,16.6958 9.3692,16.8198 9.0612,17.0688 C8.7522,17.3168 8.5962,17.6718 8.5962,18.1388 C8.5962,18.5698 8.7132,18.8948 8.9452,19.1168 C9.1772,19.3388 9.5092,19.4488 9.9392,19.4488 L9.9392,19.4488 Z M13.7852,18.0408 C13.7852,18.3858 13.8202,18.6598 13.8922,18.8658 C13.9652,19.0718 14.0672,19.2938 14.1992,19.5298 C14.2432,19.6058 14.2652,19.6758 14.2652,19.7388 C14.2652,19.8378 14.2042,19.9298 14.0832,20.0148 L13.4862,20.4048 C13.3982,20.4578 13.3152,20.4858 13.2382,20.4858 C13.1372,20.4858 13.0442,20.4428 12.9562,20.3568 C12.8222,20.2258 12.7102,20.0838 12.6172,19.9268 C12.5212,19.7708 12.4252,19.5878 12.3262,19.3828 C11.5852,20.2358 10.6582,20.6628 9.5422,20.6628 C8.7462,20.6628 8.1162,20.4428 7.6512,19.9988 C7.1882,19.5568 6.9562,18.9628 6.9562,18.2188 C6.9562,17.4318 7.2432,16.7958 7.8192,16.3158 C8.3922,15.8358 9.1672,15.5948 10.1382,15.5948 C10.4592,15.5948 10.7932,15.6198 11.1412,15.6678 C11.4882,15.7158 11.8512,15.7848 12.2252,15.8708 L12.2252,15.1918 C12.2252,14.4898 12.0782,13.9958 11.7792,13.7088 C11.4812,13.4228 10.9682,13.2808 10.2392,13.2808 C9.9062,13.2808 9.5662,13.3198 9.2182,13.4008 C8.8712,13.4818 8.5302,13.5868 8.1992,13.7158 C8.0442,13.7808 7.9332,13.8218 7.8682,13.8378 C7.8022,13.8538 7.7522,13.8618 7.7192,13.8618 C7.5872,13.8618 7.5192,13.7658 7.5192,13.5698 L7.5192,13.1178 C7.5192,12.9658 7.5432,12.8578 7.5872,12.7948 C7.6312,12.7288 7.7192,12.6638 7.8522,12.5998 C8.1832,12.4368 8.5812,12.2968 9.0442,12.1788 C9.5092,12.0598 10.0002,11.9998 10.5202,11.9998 C11.6462,11.9998 12.4722,12.2528 12.9972,12.7528 C13.5212,13.2548 13.7852,14.0128 13.7852,15.0278 L13.7852,18.0408 Z" id="icon-6e8dc616509f-1-Fill-1" fill="#FFFFFF" />
    </g>
</svg>
<text x="36" y="-142" font-family="Arial, Helvetica, sans-serif" font-size="13" text-anchor="start" fill="#232F3E" font-weight="normal">
<tspan x="36" dy="0">AWS Cloud</tspan>
</text>
</g>
<g data-group-id="functions">
<rect x="20" y="44" width="192" height="350" fill="#FFF9F2" stroke="#ED7100" stroke-width="1.2"/>
<svg xmlns="http://www.w3.org/2000/svg" width="28" height="28" viewBox="0 0 80 80" version="1.1" id="icon-6e8dc616509f-2" x="20" y="44" preserveAspectRatio="xMidYMid meet" data-icon="" aria-hidden="true">
    <title>Icon-Architecture/64/Arch_AWS-Lambda_64</title>
    <g id="icon-6e8dc616509f-2-Icon-Architecture/64/Arch_AWS-Lambda_64" stroke="none" stroke-width="1" fill="none" fill-rule="evenodd">
        <g id="icon-6e8dc616509f-2-Icon-Architecture-BG/64/Compute" fill="#ED7100">
            <rect id="icon-6e8dc616509f-2-Rectangle" x="0" y="0" width="80" height="80" />
        </g>
        <path d="M28.0075352,66 L15.5907274,66 L29.3235885,37.296 L35.5460249,50.106 L28.0075352,66 Z M30.2196674,34.553 C30.0512768,34.208 29.7004629,33.989 29.3175745,33.989 L29.3145676,33.989 C28.9286723,33.99 28.5778583,34.211 28.4124746,34.558 L13.097944,66.569 C12.9495999,66.879 12.9706487,67.243 13.1550766,67.534 C13.3374998,67.824 13.6582439,68 14.0020416,68 L28.6420072,68 C29.0299071,68 29.3817234,67.777 29.5481094,67.428 L37.563706,50.528 C37.693006,50.254 37.6920037,49.937 37.5586944,49.665 L30.2196674,34.553 Z M64.9953491,66 L52.6587274,66 L32.866809,24.57 C32.7014253,24.222 32.3486067,24 31.9617091,24 L23.8899822,24 L23.8990031,14 L39.7197081,14 L59.4204149,55.429 C59.5857986,55.777 59.9386172,56 60.3255148,56 L64.9953491,56 L64.9953491,66 Z M65.9976745,54 L60.9599868,54 L41.25928,12.571 C41.0938963,12.223 40.7410777,12 40.3531778,12 L22.89768,12 C22.3453987,12 21.8963569,12.447 21.8953545,12.999 L21.884329,24.999 C21.884329,25.265 21.9885708,25.519 22.1780103,25.707 C22.3654452,25.895 22.6200358,26 22.8866544,26 L31.3292417,26 L51.1221625,67.43 C51.2885485,67.778 51.6393624,68 52.02626,68 L65.9976745,68 C66.5519605,68 67,67.552 67,67 L67,55 C67,54.448 66.5519605,54 65.9976745,54 L65.9976745,54 Z" id="icon-6e8dc616509f-2-AWS-Lambda_Icon_64_Squid" fill="#FFFFFF" />
    </g>
</svg>
<text x="56" y="63" font-family="Arial, Helvetica, sans-serif" font-size="13" text-anchor="start" fill="#ED7100" font-weight="normal">
<tspan x="56" dy="0">AWS Lambda</tspan>
</text>
</g>
<g data-group-id="fwd">
<rect x="676" y="105" width="252" height="490" fill="#FFF9F2" stroke="#ED7100" stroke-width="1.2"/>
<svg xmlns="http://www.w3.org/2000/svg" width="28" height="28" viewBox="0 0 80 80" version="1.1" id="icon-6e8dc616509f-3" x="676" y="105" preserveAspectRatio="xMidYMid meet" data-icon="" aria-hidden="true">
    <title>Icon-Architecture/64/Arch_AWS-Lambda_64</title>
    <g id="icon-6e8dc616509f-3-Icon-Architecture/64/Arch_AWS-Lambda_64" stroke="none" stroke-width="1" fill="none" fill-rule="evenodd">
        <g id="icon-6e8dc616509f-3-Icon-Architecture-BG/64/Compute" fill="#ED7100">
            <rect id="icon-6e8dc616509f-3-Rectangle" x="0" y="0" width="80" height="80" />
        </g>
        <path d="M28.0075352,66 L15.5907274,66 L29.3235885,37.296 L35.5460249,50.106 L28.0075352,66 Z M30.2196674,34.553 C30.0512768,34.208 29.7004629,33.989 29.3175745,33.989 L29.3145676,33.989 C28.9286723,33.99 28.5778583,34.211 28.4124746,34.558 L13.097944,66.569 C12.9495999,66.879 12.9706487,67.243 13.1550766,67.534 C13.3374998,67.824 13.6582439,68 14.0020416,68 L28.6420072,68 C29.0299071,68 29.3817234,67.777 29.5481094,67.428 L37.563706,50.528 C37.693006,50.254 37.6920037,49.937 37.5586944,49.665 L30.2196674,34.553 Z M64.9953491,66 L52.6587274,66 L32.866809,24.57 C32.7014253,24.222 32.3486067,24 31.9617091,24 L23.8899822,24 L23.8990031,14 L39.7197081,14 L59.4204149,55.429 C59.5857986,55.777 59.9386172,56 60.3255148,56 L64.9953491,56 L64.9953491,66 Z M65.9976745,54 L60.9599868,54 L41.25928,12.571 C41.0938963,12.223 40.7410777,12 40.3531778,12 L22.89768,12 C22.3453987,12 21.8963569,12.447 21.8953545,12.999 L21.884329,24.999 C21.884329,25.265 21.9885708,25.519 22.1780103,25.707 C22.3654452,25.895 22.6200358,26 22.8866544,26 L31.3292417,26 L51.1221625,67.43 C51.2885485,67.778 51.6393624,68 52.02626,68 L65.9976745,68 C66.5519605,68 67,67.552 67,67 L67,55 C67,54.448 66.5519605,54 65.9976745,54 L65.9976745,54 Z" id="icon-6e8dc616509f-3-AWS-Lambda_Icon_64_Squid" fill="#FFFFFF" />
    </g>
</svg>
<text x="712" y="124" font-family="Arial, Helvetica, sans-serif" font-size="13" text-anchor="start" fill="#ED7100" font-weight="normal">
<tspan x="712" dy="0">otlp-forwarder</tspan>
</text>
</g>
<g data-edge-from="functions" data-edge-to="transport">
<polyline points="212,219 374,219" fill="none" stroke="#232F3E" stroke-width="2" stroke-linejoin="miter"/>
<polygon points="382,219 374,215 374,223" fill="#232F3E"/>
<text x="297" y="193" font-family="Arial, Helvetica, sans-serif" font-size="12" text-anchor="middle" fill="#232F3E" font-weight="normal">
<tspan x="297" dy="0">OTLP protobuf</tspan>
<tspan x="297" dy="15">on stdout</tspan>
</text>
</g>
<g data-edge-from="transport" data-edge-to="forwarder">
<polyline points="562,219 704,219" fill="none" stroke="#232F3E" stroke-width="2" stroke-linejoin="miter"/>
<polygon points="712,219 704,215 704,223" fill="#232F3E"/>
<text x="619" y="193" font-family="Arial, Helvetica, sans-serif" font-size="12" text-anchor="middle" fill="#232F3E" font-weight="normal">
<tspan x="619" dy="0">invokes</tspan>
<tspan x="619" dy="15">(log batches)</tspan>
</text>
</g>
<g data-edge-from="forwarder" data-edge-to="otlp">
<polyline points="892,219 1022,219" fill="none" stroke="#232F3E" stroke-width="2" stroke-linejoin="miter"/>
<polygon points="1030,219 1022,215 1022,223" fill="#232F3E"/>
<svg xmlns="http://www.w3.org/2000/svg" version="1.1" id="icon-6e8dc616509f-4-Layer_1" x="973" y="184.6" viewBox="0 0 32 32" style="enable-background:new 0 0 32 32;" xml:space="preserve" width="32" height="32" preserveAspectRatio="xMidYMid meet" data-icon="" aria-hidden="true">
<style type="text/css">#icon-6e8dc616509f-4-Layer_1 .st0 {fill:none;stroke:#002E42;stroke-width:2;stroke-linecap:round;stroke-linejoin:round;}#icon-6e8dc616509f-4-Layer_1 .st1 {fill:#002E42;}#icon-6e8dc616509f-4-Layer_1 .st2 {fill:none;stroke:#002E42;stroke-width:2;stroke-linecap:round;stroke-miterlimit:10;}#icon-6e8dc616509f-4-Layer_1 .st3 {fill:none;stroke:#002E42;stroke-width:2;stroke-linecap:round;stroke-linejoin:round;stroke-miterlimit:10;}
</style>
<path class="st0" d="M17.4,18.6h3.4" />
<path class="st0" d="M19.1,19.3v4.3" />
<path class="st0" d="M27.4,18.6v5" />
<path class="st1" d="M24.2,18.6c0-0.6-0.4-1-1-1c-0.6,0-1,0.4-1,1H24.2z M22.2,18.6v2.5h2v-2.5H22.2z M22.2,21.1  c0,1.9,1.6,3.5,3.5,3.5v-2c-0.8,0-1.5-0.7-1.5-1.5H22.2z" />
<path class="st0" d="M27.4,23.6c-1.3,0-4.2,0.4-4.2-2.5" />
<path class="st0" d="M27.4,22.2c1.9,0,3.4,0,3.4-1.8c0-1.8-1.5-1.8-3.4-1.8" />
<circle class="st0" cx="13.1" cy="21.1" r="2.5" />
<path class="st2" d="M3.6,23l-1.4,1.4" />
<path class="st2" d="M1.1,23.5L3,25.4" />
<path class="st3" d="M5.6,24.4l-3.7-3.8l4.8-4.8l1.9,2c-1.4,1.5-1.5,3.1-1,4.7L5.6,24.4z" />
<path class="st3" d="M11,16l-2.5-2.7l4.2-4.2l4.8,4.8l-1.9,1.9C14.1,14.9,12.4,15.2,11,16z" />
<path class="st3" d="M20.9,13l-7.2-7.2c-0.4-0.4-0.4-0.9,0-1.3L15.3,3c0.4-0.4,0.9-0.4,1.3,0l7.2,7.2c0.4,0.4,0.4,0.9,0,1.3L22.2,13  C21.8,13.3,21.3,13.3,20.9,13z" />
</svg>
</g>
<g data-edge-from="forwarder" data-edge-to="rotel">
<polyline points="802,289 802,431" fill="none" stroke="#232F3E" stroke-width="2" stroke-linejoin="miter"/>
<polygon points="802,439 806,431 798,431" fill="#232F3E"/>
<svg xmlns="http://www.w3.org/2000/svg" version="1.1" id="icon-6e8dc616509f-5-Layer_1" x="760" y="348" viewBox="0 0 32 32" style="enable-background:new 0 0 32 32;" xml:space="preserve" width="32" height="32" preserveAspectRatio="xMidYMid meet" data-icon="" aria-hidden="true">
<style type="text/css">#icon-6e8dc616509f-5-Layer_1 .st0 {fill:none;stroke:#002E42;stroke-width:2;stroke-linecap:round;stroke-linejoin:round;}#icon-6e8dc616509f-5-Layer_1 .st1 {fill:#002E42;}#icon-6e8dc616509f-5-Layer_1 .st2 {fill:none;stroke:#002E42;stroke-width:2;stroke-linecap:round;stroke-miterlimit:10;}#icon-6e8dc616509f-5-Layer_1 .st3 {fill:none;stroke:#002E42;stroke-width:2;stroke-linecap:round;stroke-linejoin:round;stroke-miterlimit:10;}
</style>
<path class="st0" d="M17.4,18.6h3.4" />
<path class="st0" d="M19.1,19.3v4.3" />
<path class="st0" d="M27.4,18.6v5" />
<path class="st1" d="M24.2,18.6c0-0.6-0.4-1-1-1c-0.6,0-1,0.4-1,1H24.2z M22.2,18.6v2.5h2v-2.5H22.2z M22.2,21.1  c0,1.9,1.6,3.5,3.5,3.5v-2c-0.8,0-1.5-0.7-1.5-1.5H22.2z" />
<path class="st0" d="M27.4,23.6c-1.3,0-4.2,0.4-4.2-2.5" />
<path class="st0" d="M27.4,22.2c1.9,0,3.4,0,3.4-1.8c0-1.8-1.5-1.8-3.4-1.8" />
<circle class="st0" cx="13.1" cy="21.1" r="2.5" />
<path class="st2" d="M3.6,23l-1.4,1.4" />
<path class="st2" d="M1.1,23.5L3,25.4" />
<path class="st3" d="M5.6,24.4l-3.7-3.8l4.8-4.8l1.9,2c-1.4,1.5-1.5,3.1-1,4.7L5.6,24.4z" />
<path class="st3" d="M11,16l-2.5-2.7l4.2-4.2l4.8,4.8l-1.9,1.9C14.1,14.9,12.4,15.2,11,16z" />
<path class="st3" d="M20.9,13l-7.2-7.2c-0.4-0.4-0.4-0.9,0-1.3L15.3,3c0.4-0.4,0.9-0.4,1.3,0l7.2,7.2c0.4,0.4,0.4,0.9,0,1.3L22.2,13  C21.8,13.3,21.3,13.3,20.9,13z" />
</svg>
</g>
<g data-edge-from="rotel" data-edge-to="clickhouse">
<polyline points="892,509 1022,509" fill="none" stroke="#232F3E" stroke-width="2" stroke-linejoin="miter"/>
<polygon points="1030,509 1022,505 1022,513" fill="#232F3E"/>
<svg xmlns="http://www.w3.org/2000/svg" fill="#000000" version="1.1" id="icon-6e8dc616509f-6-Capa_1" width="32" height="32" viewBox="0 0 550.801 550.801" xml:space="preserve" x="973" y="469" preserveAspectRatio="xMidYMid meet" data-icon="" aria-hidden="true">
<g>
	<path d="M488.426,197.019H475.2v-63.816c0-0.398-0.063-0.799-0.116-1.202c-0.021-2.534-0.827-5.023-2.562-6.995L366.325,3.694   c-0.032-0.031-0.063-0.042-0.085-0.076c-0.633-0.707-1.371-1.295-2.151-1.804c-0.231-0.155-0.464-0.285-0.706-0.419   c-0.676-0.369-1.393-0.675-2.131-0.896c-0.2-0.056-0.38-0.138-0.58-0.19C359.87,0.119,359.037,0,358.193,0H97.2   c-11.918,0-21.6,9.693-21.6,21.601v175.413H62.377c-17.049,0-30.873,13.818-30.873,30.873v160.545   c0,17.043,13.824,30.87,30.873,30.87h13.224V529.2c0,11.907,9.682,21.601,21.6,21.601h356.4c11.907,0,21.6-9.693,21.6-21.601   V419.302h13.226c17.044,0,30.871-13.827,30.871-30.87v-160.54C519.297,210.838,505.47,197.019,488.426,197.019z M97.2,21.605   h250.193v110.513c0,5.967,4.841,10.8,10.8,10.8h95.407v54.108H97.2V21.605z M357.17,383.211l-10.536,28.233   c-22.96-6.702-42.103-13.637-63.64-22.739c-3.586-1.424-7.414-2.151-11.243-2.383c-36.371-2.384-70.348-29.184-70.348-81.834   c0-48.344,30.631-84.712,78.722-84.712c49.297,0,76.339,37.33,76.339,81.358c0,36.619-16.991,62.448-38.296,72.014v0.966   C330.613,377.716,344.493,380.584,357.17,383.211z M73.364,376.271l7.415-30.143c9.801,5.021,24.883,10.046,40.432,10.046   c16.761,0,25.6-6.945,25.6-17.471c0-10.052-7.646-15.789-27.032-22.729c-26.799-9.334-44.275-24.174-44.275-47.625   c0-27.514,22.984-48.573,61.027-48.573c18.185,0,31.59,3.828,41.159,8.131l-8.145,29.431c-6.452-3.106-17.938-7.652-33.729-7.652   c-15.805,0-23.451,7.174-23.451,15.546c0,10.294,9.089,14.834,29.9,22.729c28.474,10.525,41.887,25.365,41.887,48.104   c0,27.031-20.822,50.013-65.093,50.013C100.631,386.09,82.448,381.302,73.364,376.271z M453.601,523.353H97.2V419.302h356.4   V523.353z M481.139,383.686H380.395V222.41h36.608v130.646h64.136V383.686L481.139,383.686z" />
	<path d="M279.16,248.73c-24.88,0-39.242,24.408-39.242,54.561c-0.248,30.634,14.589,54.08,39.002,54.08   c24.641,0,39.011-23.214,39.011-54.791C317.931,273.138,304.057,248.73,279.16,248.73z" />
</g>
</svg>
</g>
<g data-edge-from="rotel" data-edge-to="secret">
<polyline points="712,509 214,509" fill="none" stroke="#232F3E" stroke-width="2" stroke-linejoin="miter" stroke-dasharray="6 5"/>
<polygon points="206,509 214,513 214,505" fill="#232F3E"/>
<rect x="311.6" y="483" width="258.8" height="18" rx="4" fill="#EEF2F6" stroke="#AAB7C4" stroke-width="1" data-chip="api"/>
<text x="441" y="496" font-family="Consolas, Menlo, DejaVu Sans Mono, Liberation Mono, monospace" font-size="12" text-anchor="middle" fill="#232F3E" font-weight="normal">
<tspan x="441" dy="0">secretsmanager:BatchGetSecretValue</tspan>
</text>
</g>
<g data-edge-from="forwarder" data-edge-to="secret">
<polyline points="742,289 742,410 116,410 116,426" fill="none" stroke="#232F3E" stroke-width="2" stroke-linejoin="miter" stroke-dasharray="6 5"/>
<polygon points="116,434 120,426 112,426" fill="#232F3E"/>
<rect x="332.6" y="418" width="222.8" height="18" rx="4" fill="#EEF2F6" stroke="#AAB7C4" stroke-width="1" data-chip="api"/>
<text x="444" y="431" font-family="Consolas, Menlo, DejaVu Sans Mono, Liberation Mono, monospace" font-size="12" text-anchor="middle" fill="#232F3E" font-weight="normal">
<tspan x="444" dy="0">secretsmanager:GetSecretValue</tspan>
</text>
<text x="444" y="451" font-family="Arial, Helvetica, sans-serif" font-size="12" text-anchor="middle" fill="#232F3E" font-weight="normal">
<tspan x="444" dy="0">(otlp exporter)</tspan>
</text>
</g>
<g data-edge-from="forwarder" data-edge-to="sink">
<polyline points="802,149 802,7" fill="none" stroke="#232F3E" stroke-width="2" stroke-linejoin="miter"/>
<polygon points="802,-1 798,7 806,7" fill="#232F3E"/>
<svg xmlns="http://www.w3.org/2000/svg" version="1.1" id="icon-6e8dc616509f-7-Layer_1" x="760" y="27.4" viewBox="0 0 32 32" style="enable-background:new 0 0 32 32;" xml:space="preserve" width="32" height="32" preserveAspectRatio="xMidYMid meet" data-icon="" aria-hidden="true">
<style type="text/css">#icon-6e8dc616509f-7-Layer_1 .st0 {fill:none;stroke:#002E42;stroke-width:2;stroke-linecap:round;stroke-linejoin:round;}#icon-6e8dc616509f-7-Layer_1 .st1 {fill:#002E42;}#icon-6e8dc616509f-7-Layer_1 .st2 {fill:none;stroke:#002E42;stroke-width:2;stroke-linecap:round;stroke-miterlimit:10;}#icon-6e8dc616509f-7-Layer_1 .st3 {fill:none;stroke:#002E42;stroke-width:2;stroke-linecap:round;stroke-linejoin:round;stroke-miterlimit:10;}
</style>
<path class="st0" d="M17.4,18.6h3.4" />
<path class="st0" d="M19.1,19.3v4.3" />
<path class="st0" d="M27.4,18.6v5" />
<path class="st1" d="M24.2,18.6c0-0.6-0.4-1-1-1c-0.6,0-1,0.4-1,1H24.2z M22.2,18.6v2.5h2v-2.5H22.2z M22.2,21.1  c0,1.9,1.6,3.5,3.5,3.5v-2c-0.8,0-1.5-0.7-1.5-1.5H22.2z" />
<path class="st0" d="M27.4,23.6c-1.3,0-4.2,0.4-4.2-2.5" />
<path class="st0" d="M27.4,22.2c1.9,0,3.4,0,3.4-1.8c0-1.8-1.5-1.8-3.4-1.8" />
<circle class="st0" cx="13.1" cy="21.1" r="2.5" />
<path class="st2" d="M3.6,23l-1.4,1.4" />
<path class="st2" d="M1.1,23.5L3,25.4" />
<path class="st3" d="M5.6,24.4l-3.7-3.8l4.8-4.8l1.9,2c-1.4,1.5-1.5,3.1-1,4.7L5.6,24.4z" />
<path class="st3" d="M11,16l-2.5-2.7l4.2-4.2l4.8,4.8l-1.9,1.9C14.1,14.9,12.4,15.2,11,16z" />
<path class="st3" d="M20.9,13l-7.2-7.2c-0.4-0.4-0.4-0.9,0-1.3L15.3,3c0.4-0.4,0.9-0.4,1.3,0l7.2,7.2c0.4,0.4,0.4,0.9,0,1.3L22.2,13  C21.8,13.3,21.3,13.3,20.9,13z" />
</svg>
</g>
<g data-node-id="app-frontend">
<rect x="36" y="88" width="160" height="40" fill="#FFFFFF" stroke="#CAD3DC" stroke-width="1.2"/>
<svg xmlns="http://www.w3.org/2000/svg" xmlns:xlink="http://www.w3.org/1999/xlink" version="1.1" height="24" width="24" viewBox="0 0 106 106" id="icon-6e8dc616509f-8" x="50" y="96" preserveAspectRatio="xMidYMid meet" data-icon="" aria-hidden="true">
<g id="icon-6e8dc616509f-8-logo" transform="translate(53, 53)">
  <path id="icon-6e8dc616509f-8-r" transform="translate(0.5, 0.5)" stroke="black" stroke-width="1" stroke-linejoin="round" d="     M -9,-15 H 4 C 12,-15 12,-7 4,-7 H -9 Z     M -40,22 H 0 V 11 H -9 V 3 H 1 C 12,3 6,22 15,22 H 40     V 3 H 34 V 5 C 34,13 25,12 24,7 C 23,2 19,-2 18,-2 C 33,-10 24,-26 12,-26 H -35     V -15 H -25 V 11 H -40 Z" />
  <g id="icon-6e8dc616509f-8-gear" mask="url(#icon-6e8dc616509f-8-holes)">
    <circle r="43" fill="none" stroke="black" stroke-width="9" />
    <g id="icon-6e8dc616509f-8-cogs">
      <polygon id="icon-6e8dc616509f-8-cog" stroke="black" stroke-width="3" stroke-linejoin="round" points="46,3 51,0 46,-3" />
      <use xlink:href="#icon-6e8dc616509f-8-cog" transform="rotate(11.25)" />
      <use xlink:href="#icon-6e8dc616509f-8-cog" transform="rotate(22.50)" />
      <use xlink:href="#icon-6e8dc616509f-8-cog" transform="rotate(33.75)" />
      <use xlink:href="#icon-6e8dc616509f-8-cog" transform="rotate(45.00)" />
      <use xlink:href="#icon-6e8dc616509f-8-cog" transform="rotate(56.25)" />
      <use xlink:href="#icon-6e8dc616509f-8-cog" transform="rotate(67.50)" />
      <use xlink:href="#icon-6e8dc616509f-8-cog" transform="rotate(78.75)" />
      <use xlink:href="#icon-6e8dc616509f-8-cog" transform="rotate(90.00)" />
      <use xlink:href="#icon-6e8dc616509f-8-cog" transform="rotate(101.25)" />
      <use xlink:href="#icon-6e8dc616509f-8-cog" transform="rotate(112.50)" />
      <use xlink:href="#icon-6e8dc616509f-8-cog" transform="rotate(123.75)" />
      <use xlink:href="#icon-6e8dc616509f-8-cog" transform="rotate(135.00)" />
      <use xlink:href="#icon-6e8dc616509f-8-cog" transform="rotate(146.25)" />
      <use xlink:href="#icon-6e8dc616509f-8-cog" transform="rotate(157.50)" />
      <use xlink:href="#icon-6e8dc616509f-8-cog" transform="rotate(168.75)" />
      <use xlink:href="#icon-6e8dc616509f-8-cog" transform="rotate(180.00)" />
      <use xlink:href="#icon-6e8dc616509f-8-cog" transform="rotate(191.25)" />
      <use xlink:href="#icon-6e8dc616509f-8-cog" transform="rotate(202.50)" />
      <use xlink:href="#icon-6e8dc616509f-8-cog" transform="rotate(213.75)" />
      <use xlink:href="#icon-6e8dc616509f-8-cog" transform="rotate(225.00)" />
      <use xlink:href="#icon-6e8dc616509f-8-cog" transform="rotate(236.25)" />
      <use xlink:href="#icon-6e8dc616509f-8-cog" transform="rotate(247.50)" />
      <use xlink:href="#icon-6e8dc616509f-8-cog" transform="rotate(258.75)" />
      <use xlink:href="#icon-6e8dc616509f-8-cog" transform="rotate(270.00)" />
      <use xlink:href="#icon-6e8dc616509f-8-cog" transform="rotate(281.25)" />
      <use xlink:href="#icon-6e8dc616509f-8-cog" transform="rotate(292.50)" />
      <use xlink:href="#icon-6e8dc616509f-8-cog" transform="rotate(303.75)" />
      <use xlink:href="#icon-6e8dc616509f-8-cog" transform="rotate(315.00)" />
      <use xlink:href="#icon-6e8dc616509f-8-cog" transform="rotate(326.25)" />
      <use xlink:href="#icon-6e8dc616509f-8-cog" transform="rotate(337.50)" />
      <use xlink:href="#icon-6e8dc616509f-8-cog" transform="rotate(348.75)" />
    </g>
    <g id="icon-6e8dc616509f-8-mounts">
      <polygon id="icon-6e8dc616509f-8-mount" stroke="black" stroke-width="6" stroke-linejoin="round" points="-7,-42 0,-35 7,-42" />
      <use xlink:href="#icon-6e8dc616509f-8-mount" transform="rotate(72)" />
      <use xlink:href="#icon-6e8dc616509f-8-mount" transform="rotate(144)" />
      <use xlink:href="#icon-6e8dc616509f-8-mount" transform="rotate(216)" />
      <use xlink:href="#icon-6e8dc616509f-8-mount" transform="rotate(288)" />
    </g>
  </g>
  <mask id="icon-6e8dc616509f-8-holes">
    <rect x="-60" y="-60" width="120" height="120" fill="white" />
    <circle id="icon-6e8dc616509f-8-hole" cy="-40" r="3" />
    <use xlink:href="#icon-6e8dc616509f-8-hole" transform="rotate(72)" />
    <use xlink:href="#icon-6e8dc616509f-8-hole" transform="rotate(144)" />
    <use xlink:href="#icon-6e8dc616509f-8-hole" transform="rotate(216)" />
    <use xlink:href="#icon-6e8dc616509f-8-hole" transform="rotate(288)" />
  </mask>
</g>
</svg>
<text x="86" y="113" font-family="Arial, Helvetica, sans-serif" font-size="14" text-anchor="start" fill="#232F3E" font-weight="600">
<tspan x="86" dy="0">app-frontend</tspan>
</text>
</g>
<g data-node-id="app-backend">
<rect x="36" y="138" width="160" height="40" fill="#FFFFFF" stroke="#CAD3DC" stroke-width="1.2"/>
<svg xmlns="http://www.w3.org/2000/svg" xmlns:xlink="http://www.w3.org/1999/xlink" version="1.1" height="24" width="24" viewBox="0 0 106 106" id="icon-6e8dc616509f-9" x="50" y="146" preserveAspectRatio="xMidYMid meet" data-icon="" aria-hidden="true">
<g id="icon-6e8dc616509f-9-logo" transform="translate(53, 53)">
  <path id="icon-6e8dc616509f-9-r" transform="translate(0.5, 0.5)" stroke="black" stroke-width="1" stroke-linejoin="round" d="     M -9,-15 H 4 C 12,-15 12,-7 4,-7 H -9 Z     M -40,22 H 0 V 11 H -9 V 3 H 1 C 12,3 6,22 15,22 H 40     V 3 H 34 V 5 C 34,13 25,12 24,7 C 23,2 19,-2 18,-2 C 33,-10 24,-26 12,-26 H -35     V -15 H -25 V 11 H -40 Z" />
  <g id="icon-6e8dc616509f-9-gear" mask="url(#icon-6e8dc616509f-9-holes)">
    <circle r="43" fill="none" stroke="black" stroke-width="9" />
    <g id="icon-6e8dc616509f-9-cogs">
      <polygon id="icon-6e8dc616509f-9-cog" stroke="black" stroke-width="3" stroke-linejoin="round" points="46,3 51,0 46,-3" />
      <use xlink:href="#icon-6e8dc616509f-9-cog" transform="rotate(11.25)" />
      <use xlink:href="#icon-6e8dc616509f-9-cog" transform="rotate(22.50)" />
      <use xlink:href="#icon-6e8dc616509f-9-cog" transform="rotate(33.75)" />
      <use xlink:href="#icon-6e8dc616509f-9-cog" transform="rotate(45.00)" />
      <use xlink:href="#icon-6e8dc616509f-9-cog" transform="rotate(56.25)" />
      <use xlink:href="#icon-6e8dc616509f-9-cog" transform="rotate(67.50)" />
      <use xlink:href="#icon-6e8dc616509f-9-cog" transform="rotate(78.75)" />
      <use xlink:href="#icon-6e8dc616509f-9-cog" transform="rotate(90.00)" />
      <use xlink:href="#icon-6e8dc616509f-9-cog" transform="rotate(101.25)" />
      <use xlink:href="#icon-6e8dc616509f-9-cog" transform="rotate(112.50)" />
      <use xlink:href="#icon-6e8dc616509f-9-cog" transform="rotate(123.75)" />
      <use xlink:href="#icon-6e8dc616509f-9-cog" transform="rotate(135.00)" />
      <use xlink:href="#icon-6e8dc616509f-9-cog" transform="rotate(146.25)" />
      <use xlink:href="#icon-6e8dc616509f-9-cog" transform="rotate(157.50)" />
      <use xlink:href="#icon-6e8dc616509f-9-cog" transform="rotate(168.75)" />
      <use xlink:href="#icon-6e8dc616509f-9-cog" transform="rotate(180.00)" />
      <use xlink:href="#icon-6e8dc616509f-9-cog" transform="rotate(191.25)" />
      <use xlink:href="#icon-6e8dc616509f-9-cog" transform="rotate(202.50)" />
      <use xlink:href="#icon-6e8dc616509f-9-cog" transform="rotate(213.75)" />
      <use xlink:href="#icon-6e8dc616509f-9-cog" transform="rotate(225.00)" />
      <use xlink:href="#icon-6e8dc616509f-9-cog" transform="rotate(236.25)" />
      <use xlink:href="#icon-6e8dc616509f-9-cog" transform="rotate(247.50)" />
      <use xlink:href="#icon-6e8dc616509f-9-cog" transform="rotate(258.75)" />
      <use xlink:href="#icon-6e8dc616509f-9-cog" transform="rotate(270.00)" />
      <use xlink:href="#icon-6e8dc616509f-9-cog" transform="rotate(281.25)" />
      <use xlink:href="#icon-6e8dc616509f-9-cog" transform="rotate(292.50)" />
      <use xlink:href="#icon-6e8dc616509f-9-cog" transform="rotate(303.75)" />
      <use xlink:href="#icon-6e8dc616509f-9-cog" transform="rotate(315.00)" />
      <use xlink:href="#icon-6e8dc616509f-9-cog" transform="rotate(326.25)" />
      <use xlink:href="#icon-6e8dc616509f-9-cog" transform="rotate(337.50)" />
      <use xlink:href="#icon-6e8dc616509f-9-cog" transform="rotate(348.75)" />
    </g>
    <g id="icon-6e8dc616509f-9-mounts">
      <polygon id="icon-6e8dc616509f-9-mount" stroke="black" stroke-width="6" stroke-linejoin="round" points="-7,-42 0,-35 7,-42" />
      <use xlink:href="#icon-6e8dc616509f-9-mount" transform="rotate(72)" />
      <use xlink:href="#icon-6e8dc616509f-9-mount" transform="rotate(144)" />
      <use xlink:href="#icon-6e8dc616509f-9-mount" transform="rotate(216)" />
      <use xlink:href="#icon-6e8dc616509f-9-mount" transform="rotate(288)" />
    </g>
  </g>
  <mask id="icon-6e8dc616509f-9-holes">
    <rect x="-60" y="-60" width="120" height="120" fill="white" />
    <circle id="icon-6e8dc616509f-9-hole" cy="-40" r="3" />
    <use xlink:href="#icon-6e8dc616509f-9-hole" transform="rotate(72)" />
    <use xlink:href="#icon-6e8dc616509f-9-hole" transform="rotate(144)" />
    <use xlink:href="#icon-6e8dc616509f-9-hole" transform="rotate(216)" />
    <use xlink:href="#icon-6e8dc616509f-9-hole" transform="rotate(288)" />
  </mask>
</g>
</svg>
<text x="86" y="163" font-family="Arial, Helvetica, sans-serif" font-size="14" text-anchor="start" fill="#232F3E" font-weight="600">
<tspan x="86" dy="0">app-backend</tspan>
</text>
</g>
<g data-node-id="client-node">
<rect x="36" y="188" width="160" height="40" fill="#FFFFFF" stroke="#CAD3DC" stroke-width="1.2"/>
<svg xmlns="http://www.w3.org/2000/svg" width="24" height="24" viewBox="0 0 71 80" fill="none" id="icon-6e8dc616509f-10" x="50" y="196" preserveAspectRatio="xMidYMid meet" data-icon="" aria-hidden="true"><g clipPath="url(#icon-6e8dc616509f-10-clip0_337_7891)" fill="#5FA04E"><path d="M35.625 79.5c-1.081 0-2.09-.288-3.028-.792l-9.59-5.686c-1.442-.792-.721-1.08-.289-1.224 1.947-.648 2.308-.792 4.327-1.944.216-.144.504-.072.72.072l7.356 4.391c.288.144.649.144.865 0l28.77-16.628c.289-.144.433-.431.433-.791V23.714c0-.36-.144-.648-.432-.792L35.986 6.366c-.288-.144-.65-.144-.865 0L6.35 22.922c-.29.144-.434.504-.434.792v33.184c0 .287.145.647.433.791l7.86 4.535c4.254 2.16 6.922-.36 6.922-2.879V26.593c0-.432.36-.864.865-.864h3.678c.432 0 .865.36.865.864v32.752c0 5.687-3.1 8.998-8.509 8.998-1.658 0-2.956 0-6.633-1.8l-7.572-4.319A6.073 6.073 0 0 1 .798 56.97V23.786a6.073 6.073 0 0 1 3.028-5.255l28.77-16.628c1.804-1.008 4.255-1.008 6.058 0l28.77 16.628a6.073 6.073 0 0 1 3.029 5.255V56.97a6.073 6.073 0 0 1-3.029 5.254l-28.77 16.628c-.865.36-1.947.648-3.029.648Z" /><path d="M44.567 56.682c-12.62 0-15.215-5.759-15.215-10.654 0-.432.36-.864.865-.864h3.75c.433 0 .793.288.793.72.577 3.815 2.235 5.687 9.879 5.687 6.057 0 8.652-1.368 8.652-4.607 0-1.871-.72-3.24-10.167-4.175-7.86-.792-12.762-2.52-12.762-8.782 0-5.83 4.903-9.285 13.123-9.285 9.23 0 13.772 3.167 14.35 10.077 0 .216-.073.432-.217.648-.144.144-.36.288-.577.288h-3.822a.844.844 0 0 1-.793-.648c-.865-3.96-3.1-5.255-9.013-5.255-6.634 0-7.427 2.304-7.427 4.031 0 2.088.937 2.736 9.879 3.887 8.869 1.152 13.05 2.808 13.05 8.998 0 6.335-5.263 9.934-14.348 9.934Z" /></g><defs><clipPath id="icon-6e8dc616509f-10-clip0_337_7891"><path fill="#fff" d="M0 .5h71v79H0z" /></clipPath></defs></svg>
<text x="86" y="213" font-family="Arial, Helvetica, sans-serif" font-size="14" text-anchor="start" fill="#232F3E" font-weight="600">
<tspan x="86" dy="0">client-node</tspan>
</text>
</g>
<g data-node-id="client-python">
<rect x="36" y="238" width="160" height="40" fill="#FFFFFF" stroke="#CAD3DC" stroke-width="1.2"/>
<svg xmlns="http://www.w3.org/2000/svg" width="24" height="24" overflow="hidden" viewBox="0 0 238 237" id="icon-6e8dc616509f-11" x="50" y="246" preserveAspectRatio="xMidYMid meet" data-icon="" aria-hidden="true"><defs><clipPath id="icon-6e8dc616509f-11-clip0"><path d="M706-314 944-314 944-77 706-77Z" fill-rule="evenodd" clip-rule="evenodd" /></clipPath></defs><g clip-path="url(#icon-6e8dc616509f-11-clip0)" transform="translate(-706 314)"><path d="M792.441-295.763C786.496-295.763 781.697-290.979 781.697-285.062 781.697-279.166 786.496-274.382 792.441-274.382 798.365-274.382 803.184-279.166 803.184-285.062 803.184-290.979 798.365-295.763 792.441-295.763ZM823.472-312.998C833.277-313.043 843.484-312.329 853.336-310.724 868.899-308.185 882-296.728 882-281.516L882-228.072C882-212.398 869.282-199.557 853.336-199.557L796.03-199.557C776.58-199.557 760.189-183.169 760.189-164.641L760.189-139 740.485-139C723.817-139 714.114-150.877 710.037-167.494 704.538-189.82 704.772-203.124 710.037-224.505 714.602-243.159 729.189-253 745.857-253L767.365-253 824.693-253 824.693-260.134 767.365-260.134 767.365-281.516C767.365-297.715 771.76-306.527 796.03-310.724 804.268-312.151 813.668-312.953 823.472-312.998Z" fill="#366A96" fill-rule="evenodd" /><path d="M857.377-117.071C851.466-117.071 846.655-112.267 846.655-106.348 846.655-100.406 851.466-95.6026 857.377-95.6026 863.31-95.6026 868.099-100.406 868.099-106.348 868.099-112.267 863.31-117.071 857.377-117.071ZM889.563-253 911.007-253C927.662-253 935.502-240.696 939.614-224.39 945.334-201.743 945.589-184.804 939.614-167.148 933.828-150 927.642-138.539 911.007-138.539L882.402-138.539 825.211-138.539 825.211-131.375 882.402-131.375 882.402-109.908C882.402-93.6435 868.205-85.4055 853.796-81.2973 832.12-75.1034 814.722-76.0513 796.606-81.2973 781.476-85.6801 768-94.6332 768-109.908L768-163.568C768-179.01 780.947-192.199 796.606-192.199L853.796-192.199C872.846-192.199 889.563-208.568 889.563-227.971Z" fill="#FFC836" fill-rule="evenodd" /></g></svg>
<text x="86" y="263" font-family="Arial, Helvetica, sans-serif" font-size="14" text-anchor="start" fill="#232F3E" font-weight="600">
<tspan x="86" dy="0">client-python</tspan>
</text>
</g>
<g data-node-id="client-rust">
<rect x="36" y="288" width="160" height="40" fill="#FFFFFF" stroke="#CAD3DC" stroke-width="1.2"/>
<svg xmlns="http://www.w3.org/2000/svg" xmlns:xlink="http://www.w3.org/1999/xlink" version="1.1" height="24" width="24" viewBox="0 0 106 106" id="icon-6e8dc616509f-12" x="50" y="296" preserveAspectRatio="xMidYMid meet" data-icon="" aria-hidden="true">
<g id="icon-6e8dc616509f-12-logo" transform="translate(53, 53)">
  <path id="icon-6e8dc616509f-12-r" transform="translate(0.5, 0.5)" stroke="black" stroke-width="1" stroke-linejoin="round" d="     M -9,-15 H 4 C 12,-15 12,-7 4,-7 H -9 Z     M -40,22 H 0 V 11 H -9 V 3 H 1 C 12,3 6,22 15,22 H 40     V 3 H 34 V 5 C 34,13 25,12 24,7 C 23,2 19,-2 18,-2 C 33,-10 24,-26 12,-26 H -35     V -15 H -25 V 11 H -40 Z" />
  <g id="icon-6e8dc616509f-12-gear" mask="url(#icon-6e8dc616509f-12-holes)">
    <circle r="43" fill="none" stroke="black" stroke-width="9" />
    <g id="icon-6e8dc616509f-12-cogs">
      <polygon id="icon-6e8dc616509f-12-cog" stroke="black" stroke-width="3" stroke-linejoin="round" points="46,3 51,0 46,-3" />
      <use xlink:href="#icon-6e8dc616509f-12-cog" transform="rotate(11.25)" />
      <use xlink:href="#icon-6e8dc616509f-12-cog" transform="rotate(22.50)" />
      <use xlink:href="#icon-6e8dc616509f-12-cog" transform="rotate(33.75)" />
      <use xlink:href="#icon-6e8dc616509f-12-cog" transform="rotate(45.00)" />
      <use xlink:href="#icon-6e8dc616509f-12-cog" transform="rotate(56.25)" />
      <use xlink:href="#icon-6e8dc616509f-12-cog" transform="rotate(67.50)" />
      <use xlink:href="#icon-6e8dc616509f-12-cog" transform="rotate(78.75)" />
      <use xlink:href="#icon-6e8dc616509f-12-cog" transform="rotate(90.00)" />
      <use xlink:href="#icon-6e8dc616509f-12-cog" transform="rotate(101.25)" />
      <use xlink:href="#icon-6e8dc616509f-12-cog" transform="rotate(112.50)" />
      <use xlink:href="#icon-6e8dc616509f-12-cog" transform="rotate(123.75)" />
      <use xlink:href="#icon-6e8dc616509f-12-cog" transform="rotate(135.00)" />
      <use xlink:href="#icon-6e8dc616509f-12-cog" transform="rotate(146.25)" />
      <use xlink:href="#icon-6e8dc616509f-12-cog" transform="rotate(157.50)" />
      <use xlink:href="#icon-6e8dc616509f-12-cog" transform="rotate(168.75)" />
      <use xlink:href="#icon-6e8dc616509f-12-cog" transform="rotate(180.00)" />
      <use xlink:href="#icon-6e8dc616509f-12-cog" transform="rotate(191.25)" />
      <use xlink:href="#icon-6e8dc616509f-12-cog" transform="rotate(202.50)" />
      <use xlink:href="#icon-6e8dc616509f-12-cog" transform="rotate(213.75)" />
      <use xlink:href="#icon-6e8dc616509f-12-cog" transform="rotate(225.00)" />
      <use xlink:href="#icon-6e8dc616509f-12-cog" transform="rotate(236.25)" />
      <use xlink:href="#icon-6e8dc616509f-12-cog" transform="rotate(247.50)" />
      <use xlink:href="#icon-6e8dc616509f-12-cog" transform="rotate(258.75)" />
      <use xlink:href="#icon-6e8dc616509f-12-cog" transform="rotate(270.00)" />
      <use xlink:href="#icon-6e8dc616509f-12-cog" transform="rotate(281.25)" />
      <use xlink:href="#icon-6e8dc616509f-12-cog" transform="rotate(292.50)" />
      <use xlink:href="#icon-6e8dc616509f-12-cog" transform="rotate(303.75)" />
      <use xlink:href="#icon-6e8dc616509f-12-cog" transform="rotate(315.00)" />
      <use xlink:href="#icon-6e8dc616509f-12-cog" transform="rotate(326.25)" />
      <use xlink:href="#icon-6e8dc616509f-12-cog" transform="rotate(337.50)" />
      <use xlink:href="#icon-6e8dc616509f-12-cog" transform="rotate(348.75)" />
    </g>
    <g id="icon-6e8dc616509f-12-mounts">
      <polygon id="icon-6e8dc616509f-12-mount" stroke="black" stroke-width="6" stroke-linejoin="round" points="-7,-42 0,-35 7,-42" />
      <use xlink:href="#icon-6e8dc616509f-12-mount" transform="rotate(72)" />
      <use xlink:href="#icon-6e8dc616509f-12-mount" transform="rotate(144)" />
      <use xlink:href="#icon-6e8dc616509f-12-mount" transform="rotate(216)" />
      <use xlink:href="#icon-6e8dc616509f-12-mount" transform="rotate(288)" />
    </g>
  </g>
  <mask id="icon-6e8dc616509f-12-holes">
    <rect x="-60" y="-60" width="120" height="120" fill="white" />
    <circle id="icon-6e8dc616509f-12-hole" cy="-40" r="3" />
    <use xlink:href="#icon-6e8dc616509f-12-hole" transform="rotate(72)" />
    <use xlink:href="#icon-6e8dc616509f-12-hole" transform="rotate(144)" />
    <use xlink:href="#icon-6e8dc616509f-12-hole" transform="rotate(216)" />
    <use xlink:href="#icon-6e8dc616509f-12-hole" transform="rotate(288)" />
  </mask>
</g>
</svg>
<text x="86" y="313" font-family="Arial, Helvetica, sans-serif" font-size="14" text-anchor="start" fill="#232F3E" font-weight="600">
<tspan x="86" dy="0">client-rust</tspan>
</text>
</g>
<g data-node-id="client-rust-wide">
<rect x="36" y="338" width="160" height="40" fill="#FFFFFF" stroke="#CAD3DC" stroke-width="1.2"/>
<svg xmlns="http://www.w3.org/2000/svg" xmlns:xlink="http://www.w3.org/1999/xlink" version="1.1" height="24" width="24" viewBox="0 0 106 106" id="icon-6e8dc616509f-13" x="50" y="346" preserveAspectRatio="xMidYMid meet" data-icon="" aria-hidden="true">
<g id="icon-6e8dc616509f-13-logo" transform="translate(53, 53)">
  <path id="icon-6e8dc616509f-13-r" transform="translate(0.5, 0.5)" stroke="black" stroke-width="1" stroke-linejoin="round" d="     M -9,-15 H 4 C 12,-15 12,-7 4,-7 H -9 Z     M -40,22 H 0 V 11 H -9 V 3 H 1 C 12,3 6,22 15,22 H 40     V 3 H 34 V 5 C 34,13 25,12 24,7 C 23,2 19,-2 18,-2 C 33,-10 24,-26 12,-26 H -35     V -15 H -25 V 11 H -40 Z" />
  <g id="icon-6e8dc616509f-13-gear" mask="url(#icon-6e8dc616509f-13-holes)">
    <circle r="43" fill="none" stroke="black" stroke-width="9" />
    <g id="icon-6e8dc616509f-13-cogs">
      <polygon id="icon-6e8dc616509f-13-cog" stroke="black" stroke-width="3" stroke-linejoin="round" points="46,3 51,0 46,-3" />
      <use xlink:href="#icon-6e8dc616509f-13-cog" transform="rotate(11.25)" />
      <use xlink:href="#icon-6e8dc616509f-13-cog" transform="rotate(22.50)" />
      <use xlink:href="#icon-6e8dc616509f-13-cog" transform="rotate(33.75)" />
      <use xlink:href="#icon-6e8dc616509f-13-cog" transform="rotate(45.00)" />
      <use xlink:href="#icon-6e8dc616509f-13-cog" transform="rotate(56.25)" />
      <use xlink:href="#icon-6e8dc616509f-13-cog" transform="rotate(67.50)" />
      <use xlink:href="#icon-6e8dc616509f-13-cog" transform="rotate(78.75)" />
      <use xlink:href="#icon-6e8dc616509f-13-cog" transform="rotate(90.00)" />
      <use xlink:href="#icon-6e8dc616509f-13-cog" transform="rotate(101.25)" />
      <use xlink:href="#icon-6e8dc616509f-13-cog" transform="rotate(112.50)" />
      <use xlink:href="#icon-6e8dc616509f-13-cog" transform="rotate(123.75)" />
      <use xlink:href="#icon-6e8dc616509f-13-cog" transform="rotate(135.00)" />
      <use xlink:href="#icon-6e8dc616509f-13-cog" transform="rotate(146.25)" />
      <use xlink:href="#icon-6e8dc616509f-13-cog" transform="rotate(157.50)" />
      <use xlink:href="#icon-6e8dc616509f-13-cog" transform="rotate(168.75)" />
      <use xlink:href="#icon-6e8dc616509f-13-cog" transform="rotate(180.00)" />
      <use xlink:href="#icon-6e8dc616509f-13-cog" transform="rotate(191.25)" />
      <use xlink:href="#icon-6e8dc616509f-13-cog" transform="rotate(202.50)" />
      <use xlink:href="#icon-6e8dc616509f-13-cog" transform="rotate(213.75)" />
      <use xlink:href="#icon-6e8dc616509f-13-cog" transform="rotate(225.00)" />
      <use xlink:href="#icon-6e8dc616509f-13-cog" transform="rotate(236.25)" />
      <use xlink:href="#icon-6e8dc616509f-13-cog" transform="rotate(247.50)" />
      <use xlink:href="#icon-6e8dc616509f-13-cog" transform="rotate(258.75)" />
      <use xlink:href="#icon-6e8dc616509f-13-cog" transform="rotate(270.00)" />
      <use xlink:href="#icon-6e8dc616509f-13-cog" transform="rotate(281.25)" />
      <use xlink:href="#icon-6e8dc616509f-13-cog" transform="rotate(292.50)" />
      <use xlink:href="#icon-6e8dc616509f-13-cog" transform="rotate(303.75)" />
      <use xlink:href="#icon-6e8dc616509f-13-cog" transform="rotate(315.00)" />
      <use xlink:href="#icon-6e8dc616509f-13-cog" transform="rotate(326.25)" />
      <use xlink:href="#icon-6e8dc616509f-13-cog" transform="rotate(337.50)" />
      <use xlink:href="#icon-6e8dc616509f-13-cog" transform="rotate(348.75)" />
    </g>
    <g id="icon-6e8dc616509f-13-mounts">
      <polygon id="icon-6e8dc616509f-13-mount" stroke="black" stroke-width="6" stroke-linejoin="round" points="-7,-42 0,-35 7,-42" />
      <use xlink:href="#icon-6e8dc616509f-13-mount" transform="rotate(72)" />
      <use xlink:href="#icon-6e8dc616509f-13-mount" transform="rotate(144)" />
      <use xlink:href="#icon-6e8dc616509f-13-mount" transform="rotate(216)" />
      <use xlink:href="#icon-6e8dc616509f-13-mount" transform="rotate(288)" />
    </g>
  </g>
  <mask id="icon-6e8dc616509f-13-holes">
    <rect x="-60" y="-60" width="120" height="120" fill="white" />
    <circle id="icon-6e8dc616509f-13-hole" cy="-40" r="3" />
    <use xlink:href="#icon-6e8dc616509f-13-hole" transform="rotate(72)" />
    <use xlink:href="#icon-6e8dc616509f-13-hole" transform="rotate(144)" />
    <use xlink:href="#icon-6e8dc616509f-13-hole" transform="rotate(216)" />
    <use xlink:href="#icon-6e8dc616509f-13-hole" transform="rotate(288)" />
  </mask>
</g>
</svg>
<text x="86" y="363" font-family="Arial, Helvetica, sans-serif" font-size="14" text-anchor="start" fill="#232F3E" font-weight="600">
<tspan x="86" dy="0">client-rust-wide</tspan>
</text>
</g>
<g data-node-id="transport">
<rect x="382" y="149" width="180" height="140" fill="#FFFFFF" stroke="#CAD3DC" stroke-width="1.2"/>
<svg xmlns="http://www.w3.org/2000/svg" width="50" height="50" viewBox="0 0 48 48" version="1.1" id="icon-6e8dc616509f-14" x="447" y="163" preserveAspectRatio="xMidYMid meet" data-icon="" aria-hidden="true">
    <title>Icon-Resource/Management-Governance/Res_Amazon-CloudWatch_Logs_48</title>
    <g id="icon-6e8dc616509f-14-Icon-Resource/Management-Governance/Res_Amazon-CloudWatch_Logs_48" stroke="none" stroke-width="1" fill="none" fill-rule="evenodd">
        <path d="M29.4998,17.0004 C26.2418,17.0004 23.4708,19.0924 22.4378,22.0004 L24.6068,22.0004 C25.5198,20.2224 27.3678,19.0004 29.4998,19.0004 C32.5318,19.0004 34.9998,21.4674 34.9998,24.5004 C34.9998,27.5324 32.5318,30.0004 29.4998,30.0004 C27.7958,30.0004 26.2708,29.2214 25.2608,28.0004 L22.8718,28.0004 C24.1318,30.3764 26.6288,32.0004 29.4998,32.0004 C33.6358,32.0004 36.9998,28.6364 36.9998,24.5004 C36.9998,20.3644 33.6358,17.0004 29.4998,17.0004 L29.4998,17.0004 Z M1.9998,33.0004 L14.9998,33.0004 L14.9998,31.0004 L1.9998,31.0004 L1.9998,33.0004 Z M1.9998,18.0004 L14.9998,18.0004 L14.9998,16.0004 L1.9998,16.0004 L1.9998,18.0004 Z M1.9998,26.0004 L28.9998,26.0004 L28.9998,24.0004 L1.9998,24.0004 L1.9998,26.0004 Z M43.8428,35.7384 L38.8178,31.2134 C38.3998,31.7924 37.9318,32.3304 37.4148,32.8214 L42.4118,37.3294 C42.8478,37.7224 43.5278,37.6874 43.9228,37.2494 C44.3148,36.8124 44.2798,36.1344 43.8428,35.7384 L43.8428,35.7384 Z M45.4088,38.5884 C44.8028,39.2594 43.9658,39.6004 43.1248,39.6004 C42.3938,39.6004 41.6588,39.3414 41.0738,38.8154 L35.8338,34.0894 C34.0168,35.2934 31.8398,36.0004 29.4998,36.0004 C24.3798,36.0004 20.0328,32.6344 18.5488,28.0004 L20.6768,28.0004 C22.0738,31.5094 25.4988,34.0004 29.4998,34.0004 C34.7378,34.0004 38.9998,29.7384 38.9998,24.5004 C38.9998,19.2624 34.7378,15.0004 29.4998,15.0004 C25.1278,15.0004 21.4458,17.9734 20.3448,22.0004 L18.2818,22.0004 C19.4278,16.8574 24.0188,13.0004 29.4998,13.0004 C35.8408,13.0004 40.9998,18.1584 40.9998,24.5004 C40.9998,26.2774 40.5828,27.9554 39.8588,29.4604 L45.1828,34.2544 C46.4368,35.3884 46.5378,37.3314 45.4088,38.5884 L45.4088,38.5884 Z M1.9998,41.0004 L20.9998,41.0004 L20.9998,39.0004 L1.9998,39.0004 L1.9998,41.0004 Z M1.9998,10.0004 L22.9998,10.0004 L22.9998,8.0004 L1.9998,8.0004 L1.9998,10.0004 Z" id="icon-6e8dc616509f-14-Amazon-Cloudwatch_Logs_Resource-Icon_light-bg" fill="#E7157B" />
    </g>
</svg>
<text x="472" y="229" font-family="Arial, Helvetica, sans-serif" font-size="14" text-anchor="middle" fill="#232F3E" font-weight="600">
<tspan x="472" dy="0">CloudWatch Logs</tspan>
</text>
<text x="472" y="251" font-family="Consolas, Menlo, DejaVu Sans Mono, Liberation Mono, monospace" font-size="12" text-anchor="middle" fill="#232F3E" font-weight="normal">
<tspan x="472" dy="0">__otel_otlp_stdout</tspan>
</text>
<text x="472" y="266" font-family="Arial, Helvetica, sans-serif" font-size="12" text-anchor="middle" fill="#536577" font-weight="normal">
<tspan x="472" dy="0">Account subscription filter</tspan>
</text>
</g>
<g data-node-id="forwarder">
<rect x="712" y="149" width="180" height="140" fill="#FFFFFF" stroke="#CAD3DC" stroke-width="1.2"/>
<svg xmlns="http://www.w3.org/2000/svg" width="44" height="44" viewBox="0 0 48 48" version="1.1" id="icon-6e8dc616509f-15" x="780" y="163" preserveAspectRatio="xMidYMid meet" data-icon="" aria-hidden="true">
    <title>Icon-Resource/General-Resource/Res_Source-Code_48_Light</title>
    <g id="icon-6e8dc616509f-15-Icon-Resource/General-Resource/Res_Source-Code_48" stroke="none" stroke-width="1" fill="none" fill-rule="evenodd">
        <path d="M25.0518,19.684 L26.9478,20.317 L22.9478,32.317 L21.0518,31.684 L25.0518,19.684 Z M34.6248,25.22 C34.8628,25.409 34.9998,25.697 34.9998,26 C34.9998,26.304 34.8628,26.592 34.6248,26.781 L29.6248,30.781 L28.3748,29.22 L32.3998,26 L28.3748,22.781 L29.6248,21.22 L34.6248,25.22 Z M19.6248,22.781 L15.6008,26 L19.6248,29.22 L18.3748,30.781 L13.3748,26.781 C13.1378,26.592 12.9998,26.304 12.9998,26 C12.9998,25.697 13.1378,25.409 13.3748,25.22 L18.3748,21.22 L19.6248,22.781 Z M9.9998,44 L10.0068,4 L27.9998,4 L27.9998,13 C27.9998,13.552 28.4478,14 28.9998,14 L37.9998,14 L37.9998,44 L9.9998,44 Z M29.9998,5.414 L36.5858,12 L29.9998,12 L29.9998,5.414 Z M39.7068,12.293 L29.7068,2.293 C29.5198,2.105 29.2658,2 28.9998,2 L9.9998,2 C8.8228,2 7.9998,2.822 7.9998,4 L7.9998,44 C7.9998,45.14 8.8598,46 9.9998,46 L37.9998,46 C39.1408,46 39.9998,45.14 39.9998,44 L39.9998,13 C39.9998,12.734 39.8948,12.48 39.7068,12.293 L39.7068,12.293 Z" id="icon-6e8dc616509f-15-Fill-1" fill="#232F3D" />
    </g>
</svg>
<text x="802" y="229" font-family="Arial, Helvetica, sans-serif" font-size="14" text-anchor="middle" fill="#232F3E" font-weight="600">
<tspan x="802" dy="0">Handler</tspan>
</text>
<text x="802" y="251" font-family="Consolas, Menlo, DejaVu Sans Mono, Liberation Mono, monospace" font-size="12" text-anchor="middle" fill="#232F3E" font-weight="normal">
<tspan x="802" dy="0">bootstrap</tspan>
</text>
<text x="802" y="266" font-family="Arial, Helvetica, sans-serif" font-size="12" text-anchor="middle" fill="#536577" font-weight="normal">
<tspan x="802" dy="0">Unwraps Logs batches</tspan>
</text>
</g>
<g data-node-id="otlp">
<svg xmlns="http://www.w3.org/2000/svg" role="img" viewBox="-12.70 -12.70 1024.40 1024.40" id="icon-6e8dc616509f-16" x="1030" y="191" width="56" height="56" preserveAspectRatio="xMidYMid meet" data-icon="" aria-hidden="true"><style>#icon-6e8dc616509f-16 svg {enable-background:new 0 0 1000 1000}</style><path fill="#f5a800" d="M528.7 545.9c-42 42-42 110.1 0 152.1s110.1 42 152.1 0 42-110.1 0-152.1-110.1-42-152.1 0zm113.7 113.8c-20.8 20.8-54.5 20.8-75.3 0-20.8-20.8-20.8-54.5 0-75.3 20.8-20.8 54.5-20.8 75.3 0 20.8 20.7 20.8 54.5 0 75.3zm36.6-643l-65.9 65.9c-12.9 12.9-12.9 34.1 0 47l257.3 257.3c12.9 12.9 34.1 12.9 47 0l65.9-65.9c12.9-12.9 12.9-34.1 0-47L725.9 16.7c-12.9-12.9-34-12.9-46.9 0zM217.3 858.8c11.7-11.7 11.7-30.8 0-42.5l-33.5-33.5c-11.7-11.7-30.8-11.7-42.5 0L72.1 852l-.1.1-19-19c-10.5-10.5-27.6-10.5-38 0-10.5 10.5-10.5 27.6 0 38l114 114c10.5 10.5 27.6 10.5 38 0s10.5-27.6 0-38l-19-19 .1-.1 69.2-69.2z" /><path fill="#425cc7" d="M565.9 205.9L419.5 352.3c-13 13-13 34.4 0 47.4l90.4 90.4c63.9-46 153.5-40.3 211 17.2l73.2-73.2c13-13 13-34.4 0-47.4L613.3 205.9c-13-13.1-34.4-13.1-47.4 0zm-94 322.3l-53.4-53.4c-12.5-12.5-33-12.5-45.5 0L184.7 663.2c-12.5 12.5-12.5 33 0 45.5l106.7 106.7c12.5 12.5 33 12.5 45.5 0L458 694.1c-25.6-52.9-21-116.8 13.9-165.9z" /></svg>
<text x="1058" y="265" font-family="Arial, Helvetica, sans-serif" font-size="13" text-anchor="middle" fill="#232F3E" font-weight="normal">
<tspan x="1058" dy="0">OTLP endpoint</tspan>
</text>
</g>
<g data-node-id="rotel">
<rect x="712" y="439" width="180" height="140" fill="#FFFFFF" stroke="#ED7100" stroke-width="1.2"/>
<svg xmlns="http://www.w3.org/2000/svg" viewBox="0 0 566.92 566.93" id="icon-6e8dc616509f-17" x="780" y="453" width="44" height="44" preserveAspectRatio="xMidYMid meet" data-icon="" aria-hidden="true"><defs><style>#icon-6e8dc616509f-17 .cls-1 {fill:#fff;}</style></defs><g data-name="Livello 2" id="icon-6e8dc616509f-17-Livello_2"><g data-name="Livello 1" id="icon-6e8dc616509f-17-Livello_1-2"><path d="M509,411.42,290.62,512.6a17.5,17.5,0,0,1-13.73,0l-219-101.18,74-34.35L256,434.53a66.17,66.17,0,0,0,56.1,0l124.12-57.46Z" class="cls-1" /><path d="M509,284,290.62,385.19a17.5,17.5,0,0,1-13.73,0L57.88,284l74-34.35L256,307.12a62.76,62.76,0,0,0,27.45,6.25,63.44,63.44,0,0,0,28.05-6.25l124.13-57.46Z" class="cls-1" /><path d="M508.44,156.6,290.62,257.78a17.42,17.42,0,0,1-13.73,0l-219-101.17L276.3,55.43a17.39,17.39,0,0,1,13.72,0Z" class="cls-1" /><path d="M538.87,112.27c17.31,8.11,28,25.6,28,45.59,0,19.36-10.74,36.84-28,45l-40,18.11,40,18.11c17.31,7.5,28,25,28,45s-10.73,37.48-28,45.59l-40,18.11,40,18.11c17.31,7.5,28,25,28,45,0,19.36-10.74,36.85-28,45L311.51,560.68a66.07,66.07,0,0,1-56.1,0L28,455.76c-17.3-7.49-28-25-28-45,0-19.36,10.74-36.85,28-45l40-18.11L28,329.6C10.74,321.49,0,304,0,284s10.74-37.47,28-45.59l40-18.11L28,202.2c-17.3-7.5-28-25-28-45s10.74-37.47,28-45.59L256,6.09a66.26,66.26,0,0,1,55.5,0ZM290.62,385.19,509,284l-73.4-34.35L311.51,307.12a63.44,63.44,0,0,1-28.05,6.25A62.76,62.76,0,0,1,256,307.12L131.88,249.66,57.88,284l219,101.18A17.5,17.5,0,0,0,290.62,385.19Zm0,127.41L509,411.42l-72.81-34.35L312.11,434.53a66.17,66.17,0,0,1-56.1,0L131.88,377.07l-74,34.35,219,101.18A17.5,17.5,0,0,0,290.62,512.6Zm0-254.82L508.44,156.6,290,55.43a17.39,17.39,0,0,0-13.72,0L57.88,156.61l219,101.17A17.42,17.42,0,0,0,290.62,257.78Z" /></g></g></svg>
<text x="802" y="519" font-family="Arial, Helvetica, sans-serif" font-size="14" text-anchor="middle" fill="#232F3E" font-weight="600">
<tspan x="802" dy="0">ROTel extension</tspan>
</text>
<text x="802" y="541" font-family="Consolas, Menlo, DejaVu Sans Mono, Liberation Mono, monospace" font-size="12" text-anchor="middle" fill="#232F3E" font-weight="normal">
<tspan x="802" dy="0">localhost:4318</tspan>
</text>
<text x="802" y="556" font-family="Arial, Helvetica, sans-serif" font-size="12" text-anchor="middle" fill="#536577" font-weight="normal">
<tspan x="802" dy="0">OTel collector</tspan>
</text>
</g>
<g data-node-id="secret">
<rect x="26" y="434" width="180" height="150" fill="#FFFFFF" stroke="#CAD3DC" stroke-width="1.2"/>
<svg xmlns="http://www.w3.org/2000/svg" width="44" height="44" viewBox="0 0 64 64" version="1.1" id="icon-6e8dc616509f-18" x="94" y="448" preserveAspectRatio="xMidYMid meet" data-icon="" aria-hidden="true">
    <title>Icon-Architecture/48/Arch_AWS-Secrets-Manager_48</title>
    <g id="icon-6e8dc616509f-18-Icon-Architecture/48/Arch_AWS-Secrets-Manager_48" stroke="none" stroke-width="1" fill="none" fill-rule="evenodd">
        <g id="icon-6e8dc616509f-18-Icon-Architecture-BG/48/Security-Identity-Compliance" fill="#DD344C">
            <rect id="icon-6e8dc616509f-18-Rectangle" x="0" y="0" width="64" height="64" />
        </g>
        <path d="M31.24,34.64 C31.24,35.059 31.581,35.4 32,35.4 C32.419,35.4 32.76,35.059 32.76,34.64 C32.76,34.221 32.419,33.88 32,33.88 C31.581,33.88 31.24,34.221 31.24,34.64 L31.24,34.64 Z M29.24,34.64 C29.24,33.118 30.478,31.88 32,31.88 C33.521,31.88 34.76,33.118 34.76,34.64 C34.76,35.808 34.027,36.804 33,37.205 L33,40 L31,40 L31,37.205 C29.972,36.803 29.24,35.808 29.24,34.64 L29.24,34.64 Z M39,31 L25,31 L25,41 L39,41 L39,39 L37,39 L37,37 L39,37 L39,35 L37,35 L37,33 L39,33 L39,31 Z M27,29 L36.999,29 L37,25 C37,24.135 36.424,23.141 35.457,22.341 C34.443,21.501 33.152,21 32.003,21 L32.001,21 C29.618,21 27.001,23.093 27,25 L27,29 Z M39,25 L38.999,29 L40,29 C40.553,29 41,29.448 41,30 L41,42 C41,42.552 40.553,43 40,43 L24,43 C23.447,43 23,42.552 23,42 L23,30 C23,29.448 23.447,29 24,29 L25,29 L25,25 C25.001,21.971 28.469,19 32.001,19 L32.003,19 C33.628,19 35.351,19.657 36.732,20.801 C38.174,21.994 39.001,23.525 39,25 L39,25 Z M15.489,43.95 L17.11,42.777 C15.029,39.902 13.859,36.538 13.676,33 L16,33 L16,31 L13.678,31 C13.871,27.483 15.04,24.14 17.11,21.281 L15.489,20.108 C13.172,23.311 11.873,27.058 11.678,31 L10,31 L10,33 L11.676,33 C11.861,36.962 13.16,40.731 15.489,43.95 L15.489,43.95 Z M42.747,46.918 C39.88,48.993 36.527,50.162 33,50.35 L33,48 L31,48 L31,50.35 C27.471,50.162 24.118,48.994 21.25,46.918 L20.078,48.538 C23.289,50.862 27.049,52.161 31,52.35 L31,54 L33,54 L33,52.35 C36.951,52.16 40.709,50.862 43.919,48.538 L42.747,46.918 Z M21.25,17.14 C24.118,15.064 27.471,13.895 31,13.707 L31,16 L33,16 L33,13.707 C36.527,13.896 39.88,15.065 42.747,17.14 L43.919,15.52 C40.709,13.196 36.951,11.897 33,11.707 L33,10 L31,10 L31,11.707 C27.048,11.897 23.289,13.196 20.078,15.52 L21.25,17.14 Z M52.319,31 C52.125,27.058 50.826,23.311 48.509,20.108 L46.887,21.281 C48.958,24.14 50.127,27.483 50.319,31 L48,31 L48,33 L50.322,33 C50.138,36.538 48.969,39.902 46.887,42.777 L48.509,43.95 C50.838,40.731 52.136,36.962 52.322,33 L54,33 L54,31 L52.319,31 Z M45.026,20.416 L51.185,14.256 L49.771,12.842 L43.612,19.002 L45.026,20.416 Z M18.971,43.642 L12.811,49.802 L14.225,51.216 L20.386,45.056 L18.971,43.642 Z M23.246,21.833 L11.586,10.173 L10.172,11.587 L21.832,23.247 L23.246,21.833 Z M43.303,41.89 L53.826,52.413 L52.412,53.827 L41.888,43.304 L43.303,41.89 Z" id="icon-6e8dc616509f-18-AWS-Secrets-Manager_Icon_48_Squid" fill="#FFFFFF" />
    </g>
</svg>
<text x="116" y="514" font-family="Arial, Helvetica, sans-serif" font-size="14" text-anchor="middle" fill="#232F3E" font-weight="600">
<tspan x="116" dy="0">Secrets Manager</tspan>
</text>
<text x="116" y="536" font-family="Consolas, Menlo, DejaVu Sans Mono, Liberation Mono, monospace" font-size="12" text-anchor="middle" fill="#232F3E" font-weight="normal">
<tspan x="116" dy="0">otlp-headers</tspan>
<tspan x="116" dy="15">clickhouse-config</tspan>
</text>
<text x="116" y="566" font-family="Arial, Helvetica, sans-serif" font-size="12" text-anchor="middle" fill="#536577" font-weight="normal">
<tspan x="116" dy="0">Exporter credentials</tspan>
</text>
</g>
<g data-node-id="clickhouse">
<svg xmlns="http://www.w3.org/2000/svg" viewBox="0 0 616 616" id="icon-6e8dc616509f-19" x="1030" y="481" width="56" height="56" preserveAspectRatio="xMidYMid meet" data-icon="" aria-hidden="true">
  <defs>
    <style>#icon-6e8dc616509f-19 .cls-1 {
        clip-path: url(#icon-6e8dc616509f-19-clippath);
      }#icon-6e8dc616509f-19 .cls-2 {
        fill: none;
      }#icon-6e8dc616509f-19 .cls-2, #icon-6e8dc616509f-19 .cls-3, #icon-6e8dc616509f-19 .cls-4 {
        stroke-width: 0px;
      }#icon-6e8dc616509f-19 .cls-3 {
        fill: #1e1e1e;
      }#icon-6e8dc616509f-19 .cls-4 {
        fill: #faff69;
      }
    </style>
    <clipPath id="icon-6e8dc616509f-19-clippath">
      <rect class="cls-2" x="83.23" y="71.73" width="472.55" height="472.55" />
    </clipPath>
  </defs>
  <g id="icon-6e8dc616509f-19-Layer_2" data-name="Layer 2">
    <rect class="cls-4" width="616" height="616" />
  </g>
  <g id="icon-6e8dc616509f-19-Layer_1" data-name="Layer 1">
    <g class="cls-1">
      <g>
        <path class="cls-3" d="m120.14,113.3c0-2.57,2.09-4.66,4.66-4.66h34.98c2.57,0,4.66,2.09,4.66,4.66v389.38c0,2.57-2.09,4.66-4.66,4.66h-34.98c-2.57,0-4.66-2.09-4.66-4.66V113.3Z" />
        <path class="cls-3" d="m208.75,113.3c0-2.57,2.09-4.66,4.66-4.66h34.98c2.57,0,4.66,2.09,4.66,4.66v389.38c0,2.57-2.09,4.66-4.66,4.66h-34.98c-2.57,0-4.66-2.09-4.66-4.66V113.3Z" />
        <path class="cls-3" d="m297.35,113.3c0-2.57,2.09-4.66,4.66-4.66h34.98c2.57,0,4.66,2.09,4.66,4.66v389.38c0,2.57-2.09,4.66-4.66,4.66h-34.98c-2.57,0-4.66-2.09-4.66-4.66V113.3Z" />
        <path class="cls-3" d="m385.94,113.3c0-2.57,2.09-4.66,4.66-4.66h34.98c2.57,0,4.66,2.09,4.66,4.66v389.38c0,2.57-2.09,4.66-4.66,4.66h-34.98c-2.57,0-4.66-2.09-4.66-4.66V113.3Z" />
        <path class="cls-3" d="m474.56,268.36c0-2.57,2.09-4.66,4.66-4.66h34.98c2.57,0,4.65,2.09,4.65,4.66v79.28c0,2.57-2.09,4.66-4.65,4.66h-34.98c-2.57,0-4.66-2.09-4.66-4.66v-79.28Z" />
      </g>
    </g>
  </g>
</svg>
<text x="1058" y="555" font-family="Arial, Helvetica, sans-serif" font-size="13" text-anchor="middle" fill="#232F3E" font-weight="normal">
<tspan x="1058" dy="0">ClickHouse</tspan>
</text>
</g>
<g data-node-id="forwarder-runtime">
<svg xmlns="http://www.w3.org/2000/svg" id="icon-6e8dc616509f-20-Layer_2" data-name="Layer 2" viewBox="0 0 105 105" x="808" y="191" width="20" height="20" preserveAspectRatio="xMidYMid meet" data-icon="" aria-hidden="true">
  <defs>
    <style>#icon-6e8dc616509f-20-Layer_2 .cls-1 {
        fill: #fff;
      }#icon-6e8dc616509f-20-Layer_2 .cls-2, #icon-6e8dc616509f-20-Layer_2 .cls-3, #icon-6e8dc616509f-20-Layer_2 .cls-4, #icon-6e8dc616509f-20-Layer_2 .cls-5, #icon-6e8dc616509f-20-Layer_2 .cls-6, #icon-6e8dc616509f-20-Layer_2 .cls-7, #icon-6e8dc616509f-20-Layer_2 .cls-8, #icon-6e8dc616509f-20-Layer_2 .cls-9, #icon-6e8dc616509f-20-Layer_2 .cls-10, #icon-6e8dc616509f-20-Layer_2 .cls-11, #icon-6e8dc616509f-20-Layer_2 .cls-12 {
        fill: none;
        stroke: #000;
      }#icon-6e8dc616509f-20-Layer_2 .cls-2, #icon-6e8dc616509f-20-Layer_2 .cls-3, #icon-6e8dc616509f-20-Layer_2 .cls-4, #icon-6e8dc616509f-20-Layer_2 .cls-5, #icon-6e8dc616509f-20-Layer_2 .cls-6, #icon-6e8dc616509f-20-Layer_2 .cls-7, #icon-6e8dc616509f-20-Layer_2 .cls-8, #icon-6e8dc616509f-20-Layer_2 .cls-10, #icon-6e8dc616509f-20-Layer_2 .cls-11, #icon-6e8dc616509f-20-Layer_2 .cls-12 {
        stroke-linejoin: round;
      }#icon-6e8dc616509f-20-Layer_2 .cls-3 {
        stroke-width: 3px;
      }#icon-6e8dc616509f-20-Layer_2 .cls-4 {
        stroke-width: 6px;
      }#icon-6e8dc616509f-20-Layer_2 .cls-5 {
        stroke-width: 3px;
      }#icon-6e8dc616509f-20-Layer_2 .cls-6 {
        stroke-width: 3px;
      }#icon-6e8dc616509f-20-Layer_2 .cls-7 {
        stroke-width: 3px;
      }#icon-6e8dc616509f-20-Layer_2 .cls-8 {
        stroke-width: 3px;
      }#icon-6e8dc616509f-20-Layer_2 .cls-9 {
        stroke-width: 9px;
      }#icon-6e8dc616509f-20-Layer_2 .cls-10 {
        stroke-width: 3px;
      }#icon-6e8dc616509f-20-Layer_2 .cls-11 {
        stroke-width: 6px;
      }#icon-6e8dc616509f-20-Layer_2 .cls-12 {
        stroke-width: 6px;
      }
    </style>
  </defs>
  <g id="icon-6e8dc616509f-20-Layer_1-2" data-name="Layer 1">
    <g id="icon-6e8dc616509f-20-logo">
      <g id="icon-6e8dc616509f-20-gear">
        <g id="icon-6e8dc616509f-20-mounts">
          <g>
            <g>
              <path class="cls-1" d="m57,38c8,0,8,8,0,8h-13v-8h13Z" />
              <polygon points="103.5 52.5 98.5 55.5 98.5 49.5 103.5 52.5" />
              <polygon points="102.52 42.55 98.2 46.47 97.03 40.58 102.52 42.55" />
              <polygon points="102.52 62.45 97.03 64.42 98.2 58.53 102.52 62.45" />
              <polygon points="99.62 32.98 96.15 37.67 93.85 32.12 99.62 32.98" />
              <polygon points="96.15 67.33 99.62 72.02 93.85 72.88 96.15 67.33" />
              <polygon points="94.9 24.17 92.41 29.44 89.08 24.45 94.9 24.17" />
              <polygon points="92.41 75.56 94.9 80.83 89.08 80.55 92.41 75.56" />
              <polygon points="90.28 32.86 94.61 46.18 85.79 41.68 90.28 32.86" />
              <path class="cls-1" d="m95.5,52.5c0,5.08-.88,9.96-2.5,14.48v-10.98h-6v2c0,8-9,7-10,2s-5-9-6-9c15-8,6-24-6-24H18l-.08-.06c7.83-10.58,20.4-17.44,34.58-17.44,23.75,0,43,19.25,43,43Zm-.89-6.32l-4.33-13.32-4.49,8.82,8.82,4.5Zm-42.11-28.68l7-7h-14l7,7Z" />
              <path d="m93,66.98v8.02h-3.84c1.54-2.51,2.83-5.2,3.84-8.02Z" />
              <path d="m93,56v10.98c-1.01,2.82-2.3,5.51-3.84,8.02h-21.16c-9,0-3-19-14-19h-10v8h9v11H15.85c-1.08-1.75-2.04-3.59-2.85-5.49v-5.51h15v-26h-10v-11h47c12,0,21,16,6,24,1,0,5,4,6,9s10,6,10-2v-2h6Zm-36-10c8,0,8-8,0-8h-13v8h13Z" />
              <path class="cls-1" d="m68,75h21.16c-7.57,12.3-21.16,20.5-36.66,20.5s-29.09-8.2-36.65-20.5h37.15v-11h-9v-8h10c11,0,5,19,14,19Zm3.52,15.59l11.33-8.23-9.78-1.54-1.55,9.77Zm-38.04,0l-1.55-9.77-9.78,1.54,11.33,8.23Z" />
              <polygon points="88.56 16.44 87.15 22.09 82.91 17.85 88.56 16.44" />
              <polygon points="87.15 82.91 88.56 88.56 82.91 87.15 87.15 82.91" />
              <polygon points="82.85 82.36 71.52 90.59 73.07 80.82 82.85 82.36" />
              <polygon points="80.83 10.1 80.55 15.92 75.56 12.59 80.83 10.1" />
              <polygon points="80.55 89.08 80.83 94.9 75.56 92.41 80.55 89.08" />
              <polygon points="72.02 5.38 72.88 11.15 67.33 8.85 72.02 5.38" />
              <polygon points="72.88 93.85 72.02 99.62 67.33 96.15 72.88 93.85" />
              <polygon points="62.45 2.48 64.42 7.97 58.53 6.8 62.45 2.48" />
              <polygon points="64.42 97.03 62.45 102.52 58.53 98.2 64.42 97.03" />
              <polygon points="59.5 10.5 52.5 17.5 45.5 10.5 59.5 10.5" />
              <polygon points="52.5 1.5 55.5 6.5 49.5 6.5 52.5 1.5" />
              <polygon points="55.5 98.5 52.5 103.5 49.5 98.5 55.5 98.5" />
              <polygon points="42.55 2.48 46.47 6.8 40.58 7.97 42.55 2.48" />
              <polygon points="46.47 98.2 42.55 102.52 40.58 97.03 46.47 98.2" />
              <polygon points="37.67 8.85 32.12 11.15 32.98 5.38 37.67 8.85" />
              <polygon points="37.67 96.15 32.98 99.62 32.12 93.85 37.67 96.15" />
              <polygon points="31.93 80.82 33.48 90.59 22.15 82.36 31.93 80.82" />
              <polygon points="29.44 12.59 24.45 15.92 24.17 10.1 29.44 12.59" />
              <polygon points="29.44 92.41 24.17 94.9 24.45 89.08 29.44 92.41" />
              <path class="cls-1" d="m28,38v26h-15v5.51c-2.25-5.22-3.5-10.97-3.5-17.01,0-9.58,3.13-18.41,8.42-25.56l.08.06v11h10Zm-8.79,3.68l-4.49-8.82-4.33,13.32,8.82-4.5Z" />
              <polygon points="22.09 17.85 17.85 22.09 16.44 16.44 22.09 17.85" />
              <polygon points="22.09 87.15 16.44 88.56 17.85 82.91 22.09 87.15" />
              <polygon points="14.72 32.86 19.21 41.68 10.39 46.18 14.72 32.86" />
              <polygon points="15.92 24.45 12.59 29.44 10.1 24.17 15.92 24.45" />
              <polygon points="12.59 75.56 15.92 80.55 10.1 80.83 12.59 75.56" />
              <path d="m15.85,75h-2.85v-5.49c.81,1.9,1.77,3.74,2.85,5.49Z" />
              <polygon points="11.15 32.12 8.85 37.67 5.38 32.98 11.15 32.12" />
              <polygon points="8.85 67.33 11.15 72.88 5.38 72.02 8.85 67.33" />
              <polygon points="7.97 40.58 6.8 46.47 2.48 42.55 7.97 40.58" />
              <polygon points="6.8 58.53 7.97 64.42 2.48 62.45 6.8 58.53" />
              <polygon points="6.5 49.5 6.5 55.5 1.5 52.5 6.5 49.5" />
            </g>
            <g>
              <path class="cls-2" d="m44,38h13c8,0,8,8,0,8h-13v-8Z" />
              <path class="cls-2" d="m13,69.51v5.49h40v-11h-9v-8h10c11,0,5,19,14,19h25v-19h-6v2c0,8-9,7-10,2s-5-9-6-9c15-8,6-24-6-24H18v11h10v26h-15v5.51Z" />
              <path class="cls-9" d="m17.92,26.94c7.83-10.58,20.4-17.44,34.58-17.44,23.75,0,43,19.25,43,43,0,5.08-.88,9.96-2.5,14.48-1.01,2.82-2.3,5.51-3.84,8.02-7.57,12.3-21.16,20.5-36.66,20.5s-29.09-8.2-36.65-20.5c-1.08-1.75-2.04-3.59-2.85-5.49-2.25-5.22-3.5-10.97-3.5-17.01,0-9.58,3.13-18.41,8.42-25.56Z" />
              <polygon class="cls-8" points="98.5 55.5 103.5 52.5 98.5 49.5 98.5 55.5" />
              <polygon class="cls-5" points="97.03 64.42 102.52 62.45 98.2 58.53 97.03 64.42" />
              <polygon class="cls-7" points="93.85 72.88 99.62 72.02 96.15 67.33 93.85 72.88" />
              <polygon class="cls-10" points="89.08 80.55 94.9 80.83 92.41 75.56 89.08 80.55" />
              <polygon class="cls-6" points="82.91 87.15 88.56 88.56 87.15 82.91 82.91 87.15" />
              <polygon class="cls-10" points="75.56 92.41 80.83 94.9 80.55 89.08 75.56 92.41" />
              <polygon class="cls-3" points="67.33 96.15 72.02 99.62 72.88 93.85 67.33 96.15" />
              <polygon class="cls-5" points="58.53 98.2 62.45 102.52 64.42 97.03 58.53 98.2" />
              <polygon class="cls-8" points="49.5 98.5 52.5 103.5 55.5 98.5 49.5 98.5" />
              <polygon class="cls-5" points="40.58 97.03 42.55 102.52 46.47 98.2 40.58 97.03" />
              <polygon class="cls-3" points="32.12 93.85 32.98 99.62 37.67 96.15 32.12 93.85" />
              <polygon class="cls-10" points="24.45 89.08 24.17 94.9 29.44 92.41 24.45 89.08" />
              <polygon class="cls-6" points="17.85 82.91 16.44 88.56 22.09 87.15 17.85 82.91" />
              <polygon class="cls-10" points="12.59 75.56 10.1 80.83 15.92 80.55 12.59 75.56" />
              <polygon class="cls-7" points="8.85 67.33 5.38 72.02 11.15 72.88 8.85 67.33" />
              <polygon class="cls-5" points="6.8 58.53 2.48 62.45 7.97 64.42 6.8 58.53" />
              <polygon class="cls-8" points="6.5 49.5 1.5 52.5 6.5 55.5 6.5 49.5" />
              <polygon class="cls-5" points="7.97 40.58 2.48 42.55 6.8 46.47 7.97 40.58" />
              <polygon class="cls-7" points="11.15 32.12 5.38 32.98 8.85 37.67 11.15 32.12" />
              <polygon class="cls-10" points="15.92 24.45 10.1 24.17 12.59 29.44 15.92 24.45" />
              <polygon class="cls-6" points="22.09 17.85 16.44 16.44 17.85 22.09 22.09 17.85" />
              <polygon class="cls-10" points="29.44 12.59 24.17 10.1 24.45 15.92 29.44 12.59" />
              <polygon class="cls-3" points="37.67 8.85 32.98 5.38 32.12 11.15 37.67 8.85" />
              <polygon class="cls-5" points="46.47 6.8 42.55 2.48 40.58 7.97 46.47 6.8" />
              <polygon class="cls-8" points="55.5 6.5 52.5 1.5 49.5 6.5 55.5 6.5" />
              <polygon class="cls-5" points="64.42 7.97 62.45 2.48 58.53 6.8 64.42 7.97" />
              <polygon class="cls-3" points="72.88 11.15 72.02 5.38 67.33 8.85 72.88 11.15" />
              <polygon class="cls-10" points="80.55 15.92 80.83 10.1 75.56 12.59 80.55 15.92" />
              <polygon class="cls-6" points="87.15 22.09 88.56 16.44 82.91 17.85 87.15 22.09" />
              <polygon class="cls-10" points="92.41 29.44 94.9 24.17 89.08 24.45 92.41 29.44" />
              <polygon class="cls-7" points="96.15 37.67 99.62 32.98 93.85 32.12 96.15 37.67" />
              <polygon class="cls-5" points="98.2 46.47 102.52 42.55 97.03 40.58 98.2 46.47" />
              <polygon class="cls-11" points="45.5 10.5 52.5 17.5 59.5 10.5 45.5 10.5" />
              <polygon class="cls-12" points="90.28 32.86 85.79 41.68 94.61 46.18 90.28 32.86" />
              <polygon class="cls-4" points="82.85 82.36 73.07 80.82 71.52 90.59 82.85 82.36" />
              <polygon class="cls-4" points="33.48 90.59 31.93 80.82 22.15 82.36 33.48 90.59" />
              <polygon class="cls-12" points="10.39 46.18 19.21 41.68 14.72 32.86 10.39 46.18" />
            </g>
          </g>
        </g>
      </g>
    </g>
  </g>
</svg>
<text x="818" y="229" font-family="Arial, Helvetica, sans-serif" font-size="13" text-anchor="middle" fill="#232F3E" font-weight="normal">
<tspan x="818" dy="0"></tspan>
</text>
</g>
<g data-node-id="rotel-runtime">
<svg xmlns="http://www.w3.org/2000/svg" id="icon-6e8dc616509f-21-Layer_2" data-name="Layer 2" viewBox="0 0 105 105" x="808" y="481" width="20" height="20" preserveAspectRatio="xMidYMid meet" data-icon="" aria-hidden="true">
  <defs>
    <style>#icon-6e8dc616509f-21-Layer_2 .cls-1 {
        fill: #fff;
      }#icon-6e8dc616509f-21-Layer_2 .cls-2, #icon-6e8dc616509f-21-Layer_2 .cls-3, #icon-6e8dc616509f-21-Layer_2 .cls-4, #icon-6e8dc616509f-21-Layer_2 .cls-5, #icon-6e8dc616509f-21-Layer_2 .cls-6, #icon-6e8dc616509f-21-Layer_2 .cls-7, #icon-6e8dc616509f-21-Layer_2 .cls-8, #icon-6e8dc616509f-21-Layer_2 .cls-9, #icon-6e8dc616509f-21-Layer_2 .cls-10, #icon-6e8dc616509f-21-Layer_2 .cls-11, #icon-6e8dc616509f-21-Layer_2 .cls-12 {
        fill: none;
        stroke: #000;
      }#icon-6e8dc616509f-21-Layer_2 .cls-2, #icon-6e8dc616509f-21-Layer_2 .cls-3, #icon-6e8dc616509f-21-Layer_2 .cls-4, #icon-6e8dc616509f-21-Layer_2 .cls-5, #icon-6e8dc616509f-21-Layer_2 .cls-6, #icon-6e8dc616509f-21-Layer_2 .cls-7, #icon-6e8dc616509f-21-Layer_2 .cls-8, #icon-6e8dc616509f-21-Layer_2 .cls-10, #icon-6e8dc616509f-21-Layer_2 .cls-11, #icon-6e8dc616509f-21-Layer_2 .cls-12 {
        stroke-linejoin: round;
      }#icon-6e8dc616509f-21-Layer_2 .cls-3 {
        stroke-width: 3px;
      }#icon-6e8dc616509f-21-Layer_2 .cls-4 {
        stroke-width: 6px;
      }#icon-6e8dc616509f-21-Layer_2 .cls-5 {
        stroke-width: 3px;
      }#icon-6e8dc616509f-21-Layer_2 .cls-6 {
        stroke-width: 3px;
      }#icon-6e8dc616509f-21-Layer_2 .cls-7 {
        stroke-width: 3px;
      }#icon-6e8dc616509f-21-Layer_2 .cls-8 {
        stroke-width: 3px;
      }#icon-6e8dc616509f-21-Layer_2 .cls-9 {
        stroke-width: 9px;
      }#icon-6e8dc616509f-21-Layer_2 .cls-10 {
        stroke-width: 3px;
      }#icon-6e8dc616509f-21-Layer_2 .cls-11 {
        stroke-width: 6px;
      }#icon-6e8dc616509f-21-Layer_2 .cls-12 {
        stroke-width: 6px;
      }
    </style>
  </defs>
  <g id="icon-6e8dc616509f-21-Layer_1-2" data-name="Layer 1">
    <g id="icon-6e8dc616509f-21-logo">
      <g id="icon-6e8dc616509f-21-gear">
        <g id="icon-6e8dc616509f-21-mounts">
          <g>
            <g>
              <path class="cls-1" d="m57,38c8,0,8,8,0,8h-13v-8h13Z" />
              <polygon points="103.5 52.5 98.5 55.5 98.5 49.5 103.5 52.5" />
              <polygon points="102.52 42.55 98.2 46.47 97.03 40.58 102.52 42.55" />
              <polygon points="102.52 62.45 97.03 64.42 98.2 58.53 102.52 62.45" />
              <polygon points="99.62 32.98 96.15 37.67 93.85 32.12 99.62 32.98" />
              <polygon points="96.15 67.33 99.62 72.02 93.85 72.88 96.15 67.33" />
              <polygon points="94.9 24.17 92.41 29.44 89.08 24.45 94.9 24.17" />
              <polygon points="92.41 75.56 94.9 80.83 89.08 80.55 92.41 75.56" />
              <polygon points="90.28 32.86 94.61 46.18 85.79 41.68 90.28 32.86" />
              <path class="cls-1" d="m95.5,52.5c0,5.08-.88,9.96-2.5,14.48v-10.98h-6v2c0,8-9,7-10,2s-5-9-6-9c15-8,6-24-6-24H18l-.08-.06c7.83-10.58,20.4-17.44,34.58-17.44,23.75,0,43,19.25,43,43Zm-.89-6.32l-4.33-13.32-4.49,8.82,8.82,4.5Zm-42.11-28.68l7-7h-14l7,7Z" />
              <path d="m93,66.98v8.02h-3.84c1.54-2.51,2.83-5.2,3.84-8.02Z" />
              <path d="m93,56v10.98c-1.01,2.82-2.3,5.51-3.84,8.02h-21.16c-9,0-3-19-14-19h-10v8h9v11H15.85c-1.08-1.75-2.04-3.59-2.85-5.49v-5.51h15v-26h-10v-11h47c12,0,21,16,6,24,1,0,5,4,6,9s10,6,10-2v-2h6Zm-36-10c8,0,8-8,0-8h-13v8h13Z" />
              <path class="cls-1" d="m68,75h21.16c-7.57,12.3-21.16,20.5-36.66,20.5s-29.09-8.2-36.65-20.5h37.15v-11h-9v-8h10c11,0,5,19,14,19Zm3.52,15.59l11.33-8.23-9.78-1.54-1.55,9.77Zm-38.04,0l-1.55-9.77-9.78,1.54,11.33,8.23Z" />
              <polygon points="88.56 16.44 87.15 22.09 82.91 17.85 88.56 16.44" />
              <polygon points="87.15 82.91 88.56 88.56 82.91 87.15 87.15 82.91" />
              <polygon points="82.85 82.36 71.52 90.59 73.07 80.82 82.85 82.36" />
              <polygon points="80.83 10.1 80.55 15.92 75.56 12.59 80.83 10.1" />
              <polygon points="80.55 89.08 80.83 94.9 75.56 92.41 80.55 89.08" />
              <polygon points="72.02 5.38 72.88 11.15 67.33 8.85 72.02 5.38" />
              <polygon points="72.88 93.85 72.02 99.62 67.33 96.15 72.88 93.85" />
              <polygon points="62.45 2.48 64.42 7.97 58.53 6.8 62.45 2.48" />
              <polygon points="64.42 97.03 62.45 102.52 58.53 98.2 64.42 97.03" />
              <polygon points="59.5 10.5 52.5 17.5 45.5 10.5 59.5 10.5" />
              <polygon points="52.5 1.5 55.5 6.5 49.5 6.5 52.5 1.5" />
              <polygon points="55.5 98.5 52.5 103.5 49.5 98.5 55.5 98.5" />
              <polygon points="42.55 2.48 46.47 6.8 40.58 7.97 42.55 2.48" />
              <polygon points="46.47 98.2 42.55 102.52 40.58 97.03 46.47 98.2" />
              <polygon points="37.67 8.85 32.12 11.15 32.98 5.38 37.67 8.85" />
              <polygon points="37.67 96.15 32.98 99.62 32.12 93.85 37.67 96.15" />
              <polygon points="31.93 80.82 33.48 90.59 22.15 82.36 31.93 80.82" />
              <polygon points="29.44 12.59 24.45 15.92 24.17 10.1 29.44 12.59" />
              <polygon points="29.44 92.41 24.17 94.9 24.45 89.08 29.44 92.41" />
              <path class="cls-1" d="m28,38v26h-15v5.51c-2.25-5.22-3.5-10.97-3.5-17.01,0-9.58,3.13-18.41,8.42-25.56l.08.06v11h10Zm-8.79,3.68l-4.49-8.82-4.33,13.32,8.82-4.5Z" />
              <polygon points="22.09 17.85 17.85 22.09 16.44 16.44 22.09 17.85" />
              <polygon points="22.09 87.15 16.44 88.56 17.85 82.91 22.09 87.15" />
              <polygon points="14.72 32.86 19.21 41.68 10.39 46.18 14.72 32.86" />
              <polygon points="15.92 24.45 12.59 29.44 10.1 24.17 15.92 24.45" />
              <polygon points="12.59 75.56 15.92 80.55 10.1 80.83 12.59 75.56" />
              <path d="m15.85,75h-2.85v-5.49c.81,1.9,1.77,3.74,2.85,5.49Z" />
              <polygon points="11.15 32.12 8.85 37.67 5.38 32.98 11.15 32.12" />
              <polygon points="8.85 67.33 11.15 72.88 5.38 72.02 8.85 67.33" />
              <polygon points="7.97 40.58 6.8 46.47 2.48 42.55 7.97 40.58" />
              <polygon points="6.8 58.53 7.97 64.42 2.48 62.45 6.8 58.53" />
              <polygon points="6.5 49.5 6.5 55.5 1.5 52.5 6.5 49.5" />
            </g>
            <g>
              <path class="cls-2" d="m44,38h13c8,0,8,8,0,8h-13v-8Z" />
              <path class="cls-2" d="m13,69.51v5.49h40v-11h-9v-8h10c11,0,5,19,14,19h25v-19h-6v2c0,8-9,7-10,2s-5-9-6-9c15-8,6-24-6-24H18v11h10v26h-15v5.51Z" />
              <path class="cls-9" d="m17.92,26.94c7.83-10.58,20.4-17.44,34.58-17.44,23.75,0,43,19.25,43,43,0,5.08-.88,9.96-2.5,14.48-1.01,2.82-2.3,5.51-3.84,8.02-7.57,12.3-21.16,20.5-36.66,20.5s-29.09-8.2-36.65-20.5c-1.08-1.75-2.04-3.59-2.85-5.49-2.25-5.22-3.5-10.97-3.5-17.01,0-9.58,3.13-18.41,8.42-25.56Z" />
              <polygon class="cls-8" points="98.5 55.5 103.5 52.5 98.5 49.5 98.5 55.5" />
              <polygon class="cls-5" points="97.03 64.42 102.52 62.45 98.2 58.53 97.03 64.42" />
              <polygon class="cls-7" points="93.85 72.88 99.62 72.02 96.15 67.33 93.85 72.88" />
              <polygon class="cls-10" points="89.08 80.55 94.9 80.83 92.41 75.56 89.08 80.55" />
              <polygon class="cls-6" points="82.91 87.15 88.56 88.56 87.15 82.91 82.91 87.15" />
              <polygon class="cls-10" points="75.56 92.41 80.83 94.9 80.55 89.08 75.56 92.41" />
              <polygon class="cls-3" points="67.33 96.15 72.02 99.62 72.88 93.85 67.33 96.15" />
              <polygon class="cls-5" points="58.53 98.2 62.45 102.52 64.42 97.03 58.53 98.2" />
              <polygon class="cls-8" points="49.5 98.5 52.5 103.5 55.5 98.5 49.5 98.5" />
              <polygon class="cls-5" points="40.58 97.03 42.55 102.52 46.47 98.2 40.58 97.03" />
              <polygon class="cls-3" points="32.12 93.85 32.98 99.62 37.67 96.15 32.12 93.85" />
              <polygon class="cls-10" points="24.45 89.08 24.17 94.9 29.44 92.41 24.45 89.08" />
              <polygon class="cls-6" points="17.85 82.91 16.44 88.56 22.09 87.15 17.85 82.91" />
              <polygon class="cls-10" points="12.59 75.56 10.1 80.83 15.92 80.55 12.59 75.56" />
              <polygon class="cls-7" points="8.85 67.33 5.38 72.02 11.15 72.88 8.85 67.33" />
              <polygon class="cls-5" points="6.8 58.53 2.48 62.45 7.97 64.42 6.8 58.53" />
              <polygon class="cls-8" points="6.5 49.5 1.5 52.5 6.5 55.5 6.5 49.5" />
              <polygon class="cls-5" points="7.97 40.58 2.48 42.55 6.8 46.47 7.97 40.58" />
              <polygon class="cls-7" points="11.15 32.12 5.38 32.98 8.85 37.67 11.15 32.12" />
              <polygon class="cls-10" points="15.92 24.45 10.1 24.17 12.59 29.44 15.92 24.45" />
              <polygon class="cls-6" points="22.09 17.85 16.44 16.44 17.85 22.09 22.09 17.85" />
              <polygon class="cls-10" points="29.44 12.59 24.17 10.1 24.45 15.92 29.44 12.59" />
              <polygon class="cls-3" points="37.67 8.85 32.98 5.38 32.12 11.15 37.67 8.85" />
              <polygon class="cls-5" points="46.47 6.8 42.55 2.48 40.58 7.97 46.47 6.8" />
              <polygon class="cls-8" points="55.5 6.5 52.5 1.5 49.5 6.5 55.5 6.5" />
              <polygon class="cls-5" points="64.42 7.97 62.45 2.48 58.53 6.8 64.42 7.97" />
              <polygon class="cls-3" points="72.88 11.15 72.02 5.38 67.33 8.85 72.88 11.15" />
              <polygon class="cls-10" points="80.55 15.92 80.83 10.1 75.56 12.59 80.55 15.92" />
              <polygon class="cls-6" points="87.15 22.09 88.56 16.44 82.91 17.85 87.15 22.09" />
              <polygon class="cls-10" points="92.41 29.44 94.9 24.17 89.08 24.45 92.41 29.44" />
              <polygon class="cls-7" points="96.15 37.67 99.62 32.98 93.85 32.12 96.15 37.67" />
              <polygon class="cls-5" points="98.2 46.47 102.52 42.55 97.03 40.58 98.2 46.47" />
              <polygon class="cls-11" points="45.5 10.5 52.5 17.5 59.5 10.5 45.5 10.5" />
              <polygon class="cls-12" points="90.28 32.86 85.79 41.68 94.61 46.18 90.28 32.86" />
              <polygon class="cls-4" points="82.85 82.36 73.07 80.82 71.52 90.59 82.85 82.36" />
              <polygon class="cls-4" points="33.48 90.59 31.93 80.82 22.15 82.36 33.48 90.59" />
              <polygon class="cls-12" points="10.39 46.18 19.21 41.68 14.72 32.86 10.39 46.18" />
            </g>
          </g>
        </g>
      </g>
    </g>
  </g>
</svg>
<text x="818" y="519" font-family="Arial, Helvetica, sans-serif" font-size="13" text-anchor="middle" fill="#232F3E" font-weight="normal">
<tspan x="818" dy="0"></tspan>
</text>
</g>
<g data-node-id="sink">
<rect x="712" y="-141" width="180" height="140" fill="#FFFFFF" stroke="#CAD3DC" stroke-width="1.2"/>
<svg xmlns="http://www.w3.org/2000/svg" width="44" height="44" viewBox="0 0 64 64" version="1.1" id="icon-6e8dc616509f-22" x="780" y="-127" preserveAspectRatio="xMidYMid meet" data-icon="" aria-hidden="true">
    <title>Icon-Architecture/48/Arch_Amazon-CloudWatch_48</title>
    <g id="icon-6e8dc616509f-22-Icon-Architecture/48/Arch_Amazon-CloudWatch_48" stroke="none" stroke-width="1" fill="none" fill-rule="evenodd">
        <g id="icon-6e8dc616509f-22-Icon-Architecture-BG/48/Management-Governance" fill="#E7157B">
            <rect id="icon-6e8dc616509f-22-Rectangle" x="0" y="0" width="64" height="64" />
        </g>
        <path d="M42.184,39.3811216 C42.184,37.1282698 40.347,35.2954581 38.089,35.2954581 C35.831,35.2954581 33.995,37.1282698 33.995,39.3811216 C33.995,41.6339735 35.831,43.4667852 38.089,43.4667852 C40.347,43.4667852 42.184,41.6339735 42.184,39.3811216 L42.184,39.3811216 Z M44.184,39.3811216 C44.184,42.7344587 41.45,45.4622252 38.089,45.4622252 C34.729,45.4622252 31.995,42.7344587 31.995,39.3811216 C31.995,36.0277846 34.729,33.3000181 38.089,33.3000181 C41.45,33.3000181 44.184,36.0277846 44.184,39.3811216 L44.184,39.3811216 Z M50.743,49.6157337 L45.846,45.2157884 C45.524,45.6398194 45.17,46.0379097 44.785,46.4050706 L49.671,50.8030205 C49.997,51.0953525 50.505,51.0714072 50.802,50.744155 C51.096,50.4179006 51.07,49.9110588 50.743,49.6157337 L50.743,49.6157337 Z M38.089,47.091502 C42.351,47.091502 45.818,43.6324067 45.818,39.3811216 C45.818,35.1298366 42.351,31.6707413 38.089,31.6707413 C33.829,31.6707413 30.362,35.1298366 30.362,39.3811216 C30.362,43.6324067 33.829,47.091502 38.089,47.091502 L38.089,47.091502 Z M52.081,48.1341194 C53.227,49.1667597 53.319,50.9357173 52.288,52.0801021 C51.735,52.6897091 50.971,53 50.205,53 C49.538,53 48.868,52.7655358 48.333,52.2866302 L43.172,47.6412457 C41.691,48.5521641 39.954,49.0869421 38.089,49.0869421 C32.725,49.0869421 28.362,44.7328919 28.362,39.3811216 C28.362,34.0293514 32.725,29.6753012 38.089,29.6753012 C43.454,29.6753012 47.818,34.0293514 47.818,39.3811216 C47.818,40.8447769 47.482,42.2286146 46.897,43.4757646 L52.081,48.1341194 Z M17.697,23.5383254 C17.697,23.9394088 17.72,24.3384968 17.767,24.722619 C17.802,25.0059715 17.713,25.2913194 17.524,25.5048315 C17.375,25.6714508 17.177,25.7831954 16.961,25.8241019 C15.084,26.3079961 12,27.7716514 12,32.1566309 C12,35.4800363 13.836,37.3138458 15.377,38.2676661 C16.049,38.6897017 16.64,38.9052092 17.138,38.9101978 L26.127,38.9101978 L26.127,40.9056378 L17.127,40.9056378 C16.243,40.8966584 15.3,40.577388 14.317,39.9588015 C12.708,38.9640747 10,36.6214281 10,32.1566309 C10,26.8876715 13.526,24.8642953 15.71,24.117003 C15.702,23.924443 15.697,23.7308853 15.697,23.5383254 C15.697,19.1603299 18.673,14.6217015 22.621,12.9784566 C27.232,11.0508615 32.119,12.0066773 35.687,15.5336176 C36.734,16.5672555 37.604,17.8084192 38.285,19.2361566 C39.203,18.5507229 40.304,18.1745825 41.459,18.1745825 C43.874,18.1745825 46.587,19.9684831 47.122,23.8895228 C50.58,24.7216213 54,27.27778 54,32.2174919 C54,35.1078868 52.864,37.4565197 50.713,39.0089721 L49.541,37.3926656 C51.173,36.2143583 52,34.4733368 52,32.2174919 C52,27.2388689 47.811,25.9997007 46.01,25.6983892 C45.743,25.6534918 45.505,25.5018384 45.351,25.2793468 C45.208,25.071821 45.15,24.8184001 45.186,24.5709656 C44.931,21.5319104 43.141,20.1700225 41.459,20.1700225 C40.402,20.1700225 39.409,20.6858438 38.734,21.5857873 C38.514,21.8791169 38.156,22.0297727 37.786,21.9748981 C37.422,21.9210212 37.118,21.6715912 36.993,21.3263801 C36.359,19.5743837 35.446,18.1027466 34.281,16.9513777 C32.851,15.5396039 28.933,12.506535 23.391,14.81925 C20.198,16.1492108 17.697,19.9784603 17.697,23.5383254 L17.697,23.5383254 Z" id="icon-6e8dc616509f-22-Amazon-CloudWatch_Icon_48_Squid" fill="#FFFFFF" />
    </g>
</svg>
<text x="802" y="-61" font-family="Arial, Helvetica, sans-serif" font-size="14" text-anchor="middle" fill="#232F3E" font-weight="600">
<tspan x="802" dy="0">Transaction Search</tspan>
</text>
<text x="802" y="-39" font-family="Consolas, Menlo, DejaVu Sans Mono, Liberation Mono, monospace" font-size="12" text-anchor="middle" fill="#232F3E" font-weight="normal">
<tspan x="802" dy="0">aws/spans</tspan>
</text>
<text x="802" y="-24" font-family="Arial, Helvetica, sans-serif" font-size="12" text-anchor="middle" fill="#536577" font-weight="normal">
<tspan x="802" dy="0">X-Ray OTLP endpoint</tspan>
</text>
</g>
<text x="989" y="526" font-family="Arial, Helvetica, sans-serif" font-size="12" text-anchor="middle" fill="#232F3E" font-weight="normal">
<tspan x="989" dy="0"><tspan font-family="Consolas, Menlo, DejaVu Sans Mono, Liberation Mono, monospace">INSERT</tspan></tspan>
</text>
<text x="776" y="66.6" font-family="Arial, Helvetica, sans-serif" font-size="12" text-anchor="middle" fill="#232F3E" font-weight="normal">
<tspan x="776" dy="0">SigV4</tspan>
</text>
<rect x="967.6" y="227" width="42.8" height="18" rx="4" fill="#EAF2FC" stroke="#7FA7D8" stroke-width="1" data-chip="option"/>
<text x="989" y="240" font-family="Consolas, Menlo, DejaVu Sans Mono, Liberation Mono, monospace" font-size="12" text-anchor="middle" fill="#232F3E" font-weight="normal">
<tspan x="989" dy="0">otlp</tspan>
</text>
<rect x="812" y="355" width="86" height="18" rx="4" fill="#EAF2FC" stroke="#7FA7D8" stroke-width="1" data-chip="option"/>
<text x="855" y="368" font-family="Consolas, Menlo, DejaVu Sans Mono, Liberation Mono, monospace" font-size="12" text-anchor="middle" fill="#232F3E" font-weight="normal">
<tspan x="855" dy="0">clickhouse</tspan>
</text>
<rect x="812" y="43" width="86" height="18" rx="4" fill="#EAF2FC" stroke="#7FA7D8" stroke-width="1" data-chip="option"/>
<text x="855" y="56" font-family="Consolas, Menlo, DejaVu Sans Mono, Liberation Mono, monospace" font-size="12" text-anchor="middle" fill="#232F3E" font-weight="normal">
<tspan x="855" dy="0">cloudwatch</tspan>
</text>
<g data-legend="">
<polyline points="398.56,323 426.56,323" fill="none" stroke="#232F3E" stroke-width="2" stroke-linejoin="miter" stroke-dasharray="6 5"/>
<polygon points="434.56,323 426.56,319 426.56,327" fill="#232F3E"/>
<text x="446.56" y="327" font-family="Arial, Helvetica, sans-serif" font-size="12" text-anchor="start" fill="#536577" font-weight="normal">
<tspan x="446.56" dy="0">At cold start</tspan>
</text>
<polyline points="398.56,347 426.56,347" fill="none" stroke="#232F3E" stroke-width="2" stroke-linejoin="miter"/>
<polygon points="434.56,347 426.56,343 426.56,351" fill="#232F3E"/>
<text x="446.56" y="351" font-family="Arial, Helvetica, sans-serif" font-size="12" text-anchor="start" fill="#536577" font-weight="normal">
<tspan x="446.56" dy="0">On each invocation</tspan>
</text>
<rect x="347.36" y="362" width="93.2" height="18" rx="4" fill="#EAF2FC" stroke="#7FA7D8" stroke-width="1" data-chip="option"/>
<text x="393.96" y="375" font-family="Consolas, Menlo, DejaVu Sans Mono, Liberation Mono, monospace" font-size="12" text-anchor="middle" fill="#232F3E" font-weight="normal">
<tspan x="393.96" dy="0">-c exporter</tspan>
</text>
<text x="446.56" y="375" font-family="Arial, Helvetica, sans-serif" font-size="12" text-anchor="start" fill="#536577" font-weight="normal">
<tspan x="446.56" dy="0">Picks one branch at deploy</tspan>
</text>
</g>
</svg>
